<svg width="121" height="56" viewBox="0 0 121 56" fill="none" xmlns="http://www.w3.org/2000/svg">
<path d="M24.5454 0L0 13.9994V41.9994L24.5454 56L49.0903 41.9994V13.9994L24.5454 0ZM15.9556 31.5024L9.81477 28L15.9556 24.4967V31.5024ZM17.1801 24.4967L23.3204 28L17.1801 31.5024V24.4967ZM23.9336 29.0475V36.0531L17.7928 32.5499L23.9336 29.0479V29.0475ZM25.1576 29.0475L31.2984 32.5494L25.1576 36.0527V29.0471V29.0475ZM25.7699 27.9996L31.9116 24.4963V31.502L25.7699 27.9996ZM33.1352 24.4963L39.2769 27.9996L33.1352 31.502V24.4963ZM25.1576 26.9521V19.9464L31.2984 23.4484L25.1576 26.9517V26.9521ZM23.9336 26.9521L17.7928 23.4488L23.9336 19.9469V26.9525V26.9521ZM9.20208 26.9521V19.9464L15.3437 23.4484L9.20208 26.9517V26.9521ZM15.3437 32.5494L9.20208 36.0527V29.0471L15.3437 32.549V32.5494ZM23.3213 37.1002L17.1805 40.6034V33.5982L23.3213 37.1002ZM31.912 33.5982V40.6034L25.7703 37.1002L31.912 33.5982ZM39.8887 29.0475V36.0531L33.7479 32.5499L39.8887 29.0479V29.0475ZM33.7479 23.4493L39.8887 19.9473V26.953L33.7479 23.4497V23.4493ZM32.5238 22.7515L25.7708 18.8985L32.5238 15.0468L39.2773 18.8985L32.5238 22.7515ZM25.1581 17.8511V10.8458L31.2989 14.3491L25.1581 17.8511ZM23.934 17.8519L17.7932 14.3491L23.934 10.8458V17.8519ZM23.3209 18.8985L16.5683 22.7515L9.81477 18.8985L16.5683 15.0468L23.3209 18.8985ZM7.978 26.9525L1.83635 23.4493L7.978 19.9473V26.953V26.9525ZM1.22408 24.4967L7.3666 28L1.22408 31.5037V24.4967ZM7.978 29.0475V36.0531L1.83635 32.5499L7.978 29.0479V29.0475ZM15.9556 33.5982V40.6034L9.81477 37.1002L15.9556 33.5982ZM23.9336 38.1477V45.1533L17.7928 41.6509L23.9336 38.1477ZM25.1576 38.1477L31.2993 41.6509L25.1576 45.1533V38.1477ZM33.1352 33.5982L39.2769 37.1002L33.1352 40.6034V33.5982ZM41.1128 29.0475L47.2544 32.5494L41.1128 36.0527V29.0471V29.0475ZM41.1128 19.9469L47.2544 23.4488L41.1128 26.9521V19.9464V19.9469ZM33.7475 14.3487L40.5009 10.4965L47.2544 14.3487L40.5009 18.2004L33.7475 14.3487ZM32.5234 13.6505L25.7703 9.79837L32.5234 5.94666L39.2769 9.79837L32.5234 13.6505ZM25.1576 8.75133V1.74521L31.2993 5.24849L25.1576 8.75133ZM23.9336 8.75133L17.7915 5.24849L23.9336 1.74521V8.75133ZM23.3204 9.79837L16.5678 13.6505L9.81434 9.79837L16.5678 5.94666L23.3204 9.79837ZM15.3442 14.3491L8.59025 18.2008L1.83635 14.3491L8.59025 10.497L15.3442 14.3491ZM7.36531 18.8985L1.22365 22.4018V15.3961L7.36531 18.8981V18.8985ZM7.36531 37.1006L1.22365 40.6039V33.5986L7.36531 37.1006ZM8.59025 37.7988L15.3429 41.6513L8.59025 45.503L1.83635 41.6513L8.59025 37.7988ZM16.5678 42.3495L23.3204 46.2012L16.5678 50.0538L9.8139 46.2012L16.5678 42.3495ZM23.9336 47.2487V54.2552L17.7928 50.7519L23.9336 47.2487ZM25.1576 47.2487L31.2993 50.7519L25.1576 54.2552V47.2487ZM25.7699 46.2012L32.5229 42.3495L39.2764 46.2012L32.5229 50.0538L25.7699 46.2012ZM33.7475 41.6513L40.5009 37.7988L47.2544 41.6513L40.5009 45.503L33.7475 41.6513ZM41.725 37.1006L47.8667 33.5986V40.6039L41.725 37.1006ZM47.8667 31.5037L41.725 28L47.8667 24.4967V31.5037ZM41.725 18.8985L47.8667 15.3966V22.4022L41.725 18.899V18.8985Z" fill="#A3A19E"/>
<path d="M63.9747 42.0078L62.4642 39.9655V42.0078H61.7891V38.8765H62.4832L63.9508 40.8447V38.8765H64.6255V42.0078H63.9747Z" fill="#A3A19E"/>
<path d="M65.727 40.7587V38.8765H66.4118V40.7368C66.4118 41.1722 66.6688 41.4731 67.1581 41.4731C67.6469 41.4731 67.8987 41.1722 67.8987 40.7368V38.8765H68.5874V40.754C68.5874 41.5331 68.1219 42.0626 67.1581 42.0626C66.1933 42.0626 65.7266 41.5283 65.7266 40.7587H65.727Z" fill="#A3A19E"/>
<path d="M71.4701 42.0082L70.8492 40.8961H70.3543V42.0082H69.6797V38.8765H71.1625C71.8224 38.8765 72.2258 39.3037 72.2258 39.8867C72.2258 40.4406 71.8757 40.7369 71.5325 40.8143L72.2449 42.0082H71.4705H71.4701ZM71.5373 39.8867C71.5373 39.6243 71.3336 39.4642 71.0619 39.4642H70.3543V40.3096H71.0619C71.3336 40.3096 71.5373 40.1495 71.5373 39.8871V39.8867Z" fill="#A3A19E"/>
<path d="M77.0813 42.0082L76.8863 41.4778H75.5288L75.3282 42.0082H74.5586L75.7853 38.8765H76.6298L77.8513 42.0082H77.0813ZM76.2073 39.5443L75.7125 40.891H76.7009L76.2073 39.5443Z" fill="#A3A19E"/>
<path d="M78.375 41.5737L78.7416 41.0664C78.9638 41.2963 79.3113 41.4902 79.7476 41.4902C80.1181 41.4902 80.2983 41.3194 80.2983 41.1418C80.2983 40.5879 78.4755 40.9676 78.4755 39.7904C78.4755 39.2703 78.9313 38.8384 79.6774 38.8384C80.1805 38.8384 80.599 38.9882 80.9123 39.275L80.5366 39.7626C80.281 39.528 79.9383 39.4201 79.615 39.4201C79.3252 39.4201 79.1631 39.5468 79.1631 39.7335C79.1631 40.2317 80.9829 39.8982 80.9829 41.0664C80.9829 41.6387 80.5696 42.0698 79.7143 42.0698C79.1068 42.0698 78.6705 41.869 78.375 41.5741V41.5737Z" fill="#A3A19E"/>
<path d="M82.5823 42.0078V39.4638H81.6562V38.8765H84.1833V39.4638H83.263V42.0078H82.5823Z" fill="#A3A19E"/>
<path d="M86.9721 42.0082L86.7771 41.4778H85.4194L85.2197 42.0082H84.4492L85.6755 38.8765H86.5205L87.7412 42.0082H86.9725H86.9721ZM86.0972 39.5443L85.604 40.891H86.592L86.0972 39.5443Z" fill="#A3A19E"/>
<path d="M90.6853 42.0078L89.1743 39.9655V42.0078H88.5V38.8765H89.1942L90.661 40.8447V38.8765H91.3357V42.0078H90.6853Z" fill="#A3A19E"/>
<path d="M94.6316 42.0082L94.4366 41.4778H93.0778L92.8785 42.0082H92.1094L93.3339 38.8765H94.1801L95.4016 42.0082H94.6316ZM93.7577 39.5443L93.2633 40.891H94.2503L93.7572 39.5443H93.7577Z" fill="#A3A19E"/>
<path d="M99.7325 42.0078L98.7727 40.754L98.5253 41.0455V42.0078H97.8516V38.8765H98.5253V40.2754L99.648 38.8765H100.478L99.2194 40.3465L100.563 42.0078H99.7325Z" fill="#A3A19E"/>
<path d="M101.344 40.7587V38.8765H102.028V40.7368C102.028 41.1722 102.285 41.4731 102.774 41.4731C103.263 41.4731 103.515 41.1722 103.515 40.7368V38.8765H104.204V40.754C104.204 41.5331 103.738 42.0626 102.774 42.0626C101.809 42.0626 101.344 41.5283 101.344 40.7587Z" fill="#A3A19E"/>
<path d="M107.092 42.0082L106.47 40.8961H105.976V42.0082H105.301V38.8765H106.783C107.444 38.8765 107.847 39.3037 107.847 39.8867C107.847 40.4406 107.495 40.7369 107.153 40.8143L107.866 42.0082H107.092ZM107.158 39.8867C107.158 39.6243 106.953 39.4642 106.683 39.4642H105.976V40.3096H106.683C106.953 40.3096 107.158 40.1495 107.158 39.8871V39.8867Z" fill="#A3A19E"/>
<path d="M109.632 42.0078V40.7261L108.41 38.8765H109.181L109.969 40.135L110.749 38.8765H111.518L110.306 40.7261V42.0078H109.632Z" fill="#A3A19E"/>
<path d="M112.281 42.0078V38.8765H112.956V41.4218H114.295V42.0078H112.281Z" fill="#A3A19E"/>
<path d="M115.521 42.0078V40.7261L114.301 38.8765H115.07L115.859 40.135L116.638 38.8765H117.408L116.197 40.7261V42.0078H115.521Z" fill="#A3A19E"/>
<path d="M117.868 41.5737L118.234 41.0664C118.457 41.2963 118.802 41.4902 119.241 41.4902C119.612 41.4902 119.791 41.3194 119.791 41.1418C119.791 40.5879 117.967 40.9676 117.967 39.7904C117.967 39.2703 118.423 38.8384 119.17 38.8384C119.673 38.8384 120.091 38.9882 120.405 39.275L120.03 39.7626C119.773 39.528 119.43 39.4201 119.108 39.4201C118.817 39.4201 118.657 39.5468 118.657 39.7335C118.657 40.2317 120.476 39.8982 120.476 41.0664C120.476 41.6387 120.063 42.0698 119.208 42.0698C118.599 42.0698 118.162 41.869 117.867 41.5741L117.868 41.5737Z" fill="#A3A19E"/>
<path d="M65.2576 22.5411L72.8521 33.1738H77.2432V17.8911H73.7759V28.5233L66.181 17.8911H61.7891V33.1738H65.2576V22.5411Z" fill="#183C58"/>
<path d="M85.9581 33.1743L87.17 30.4222H94.6878L95.9002 33.1743H99.6833L92.9472 17.8916H88.911L82.1758 33.1743H85.9585H85.9581ZM90.9294 21.8948L93.4282 27.5671H88.4288L90.9294 21.8948Z" fill="#183C58"/>
<path d="M120.079 17.8916H115.061L108.069 24.4983V17.8916H104.602V33.1743H108.069V29.2404L110.828 26.6339L116.136 33.1743H120.582L113.344 24.2556L120.079 17.8916Z" fill="#183C58"/>
</svg>
