<svg width="256" height="56" viewBox="0 0 256 56" fill="none" xmlns="http://www.w3.org/2000/svg">
<path fill-rule="evenodd" clip-rule="evenodd" d="M9.26432 49.0365C11.7498 45.4202 17.0428 37.1081 19.3098 32.9586C20.5958 30.6054 25.9201 21.2339 29.9709 16.4726C32.7885 13.1612 34.3584 12.5408 37.7071 15.6772C39.5785 17.4302 41.5017 19.8963 43.2377 22.5585C45.4186 25.9025 47.3046 29.5566 48.4195 32.4909C46.4333 33.1875 40.0425 33.9697 37.7181 34.4218C34.0942 35.1264 15.3994 37.8077 16.2415 43.1875C16.9452 47.6827 20.7287 45.0311 22.7712 44.1375C25.3387 43.0151 29.2899 41.3851 33.9744 40.1019C39.9142 38.4745 47.4601 36.7679 51.1229 36.7034C55.3765 41.0394 58.3527 49.8953 62.8057 46.6182C66.322 44.0312 48.9777 19.7526 40.3888 10.9038C35.1773 5.53461 33.5425 6.82487 28.9592 11.8196C21.9724 19.4331 10.9107 34.7363 8.81233 37.7235C7.32649 39.8398 1.36604 48.6373 0.354845 51.7314C-0.496792 54.3371 0.270789 55.9529 1.73951 55.9993C4.155 56.0759 7.84945 51.0938 9.26381 49.0365H9.26432Z" fill="#D4AD8F"/>
<path fill-rule="evenodd" clip-rule="evenodd" d="M205.011 34.2105C208.175 35.1746 209.596 44.5073 213.24 41.9102C216.883 39.3125 208.688 30.0408 204.601 29.872C200.418 29.6986 196.724 33.8133 194.561 35.6937C190.723 39.0282 185.048 45.2996 179.298 44.7613C173.458 44.215 180.478 31.9923 186.822 28.3993C189.892 26.6604 193.761 26.9941 195.857 28.7374C200.488 32.5901 201.784 26.2542 195.823 23.71C185.826 19.4431 176.3 30.8654 173.333 39.3932C172.123 42.8688 172.573 45.1706 174.115 46.8076C183.715 56.9946 199.687 32.587 205.012 34.2105H205.011Z" fill="#D4AD8F"/>
<path fill-rule="evenodd" clip-rule="evenodd" d="M110.051 44.7911C113.643 42.3895 119.056 35.6776 121.798 32.703C122.833 31.5811 128.212 25.8797 130.051 27.3025C132.421 29.1391 132.486 36.0128 135.801 38.1357C136.538 38.6009 137.167 38.5711 137.799 38.2733C140.124 36.9553 142.932 32.3295 145.287 32.5145C148.312 32.7514 151.769 42.7332 156.642 44.2987C159.129 45.0975 161.035 43.9569 162.925 42.3482C163.959 41.4677 168.049 37.7123 166.002 36.549C165.102 36.0385 164.539 37.0274 163.681 38.2072C162.359 40.0262 160.522 42.4308 157.123 41.5085C152.659 40.2979 150.493 29.1074 146.62 27.0334C145.97 26.6851 145.234 26.479 144.4 26.8202C141.488 28.0112 137.28 37.2587 135.404 33.6102C133.986 30.8538 133.518 23.4776 130.844 22.2912C126.327 20.2863 123.236 29.2359 113.089 34.8329C110.687 36.1579 107.151 38.4517 106.506 41.3593C106.166 42.8885 106.356 44.1243 107.123 44.8173C108.156 45.7507 109.055 45.4559 110.051 44.7901L110.051 44.7911Z" fill="#D4AD8F"/>
<path fill-rule="evenodd" clip-rule="evenodd" d="M229.972 25.0937C229.583 36.0931 236.665 50.8278 249.354 50.2229C251.557 50.1181 253.103 49.7169 253.895 48.9816C254.687 48.2467 254.727 46.5079 253.033 46.6813C246.915 47.3078 243.939 46.2877 241.29 44.6048C235.627 41.0067 232.861 31.4794 232.837 25.1647C239.152 25.0534 245.453 25.7101 251.932 26.0024C253.616 26.078 255.335 25.825 255.092 24.3513C254.856 22.9154 251.933 22.9587 249.83 23.0026C243.316 23.1381 235.168 22.6397 232.704 22.372C232.251 17.4761 237.167 1.68055 233.801 0.0420241C228.127 -1.05873 229.835 19.8082 229.634 22.3257C226.889 22.239 222.515 21.4532 219.487 21.9653C215.043 22.7163 214.012 27.4998 218.709 27.339C222.333 27.215 224.509 25.1027 229.972 25.0942V25.0937Z" fill="#D4AD8F"/>
<path fill-rule="evenodd" clip-rule="evenodd" d="M73.9576 41.7392C73.0637 39.3391 74.1851 37.2062 74.1137 35.236C73.9848 31.65 70.4439 30.3365 67.9725 32.5758C66.4233 33.98 66.751 35.9134 67.1184 38.2202C70.0926 50.0861 75.3207 49.4309 79.8169 44.5284C81.8463 42.3153 82.5152 38.9042 84.0539 36.312C87.3029 30.4646 92.2813 28.7676 95.2107 29.0034C98.0671 29.2333 98.6092 29.9731 100.366 30.8385C101.763 31.526 102.644 31.3395 103.913 30.1999C106.743 27.6577 103.628 26.8886 101.315 26.3518C99.2489 25.872 97.0157 25.6704 95.328 25.5913C84.4022 25.9824 81.576 29.7221 78.618 36.7248C77.943 38.324 77.5715 40.2771 76.6862 42.0517C76.1099 43.2064 74.6497 43.7986 73.9571 41.7387L73.9576 41.7392Z" fill="#D4AD8F"/>
</svg>
