<svg width="250" height="56" viewBox="0 0 250 56" fill="none" xmlns="http://www.w3.org/2000/svg">
<path fill-rule="evenodd" clip-rule="evenodd" d="M34.2809 27.0689C34.3556 27.1619 34.4235 27.2691 34.4602 27.3638L34.4723 27.3949L34.4704 27.3999L34.4723 27.4046L34.4602 27.4354C34.4235 27.5301 34.3553 27.6373 34.2809 27.73C34.202 27.8283 34.1126 27.9138 34.0417 27.9552C33.8282 28.0966 33.5518 28.1804 33.2402 28.2754C33.1163 28.3129 32.9869 28.3526 32.8609 28.3951C32.8929 29.7643 33.1969 30.4721 33.5055 31.1904L33.5593 31.3151L33.561 31.3279C33.5891 31.5436 33.4752 31.8841 33.1833 32.252C32.9572 32.5374 32.6217 32.844 32.1611 33.1261C31.597 33.5057 30.9888 33.8725 30.3988 34.2285C29.1722 34.9685 28.0223 35.6624 27.5183 36.318L27.4251 36.4393L27.3727 36.2952C27.1253 35.6138 27.4281 35.0734 27.6893 34.6069C27.8101 34.3912 27.9219 34.1924 27.9563 34.0119C27.7106 33.1794 27.5589 32.493 27.4954 31.801C27.4358 31.1552 27.4535 30.5062 27.5431 29.7304L24.2679 31.976L24.1648 31.8221C24.1239 31.7633 24.0776 31.6966 24.0497 31.6489C23.732 31.1085 23.4495 30.404 23.2498 29.6363C23.0639 28.9215 22.9494 28.1504 22.9453 27.4052V27.3943C22.9494 26.649 23.0639 25.8779 23.2498 25.1632C23.4495 24.3957 23.732 23.691 24.0497 23.1506C24.0779 23.1031 24.1239 23.0365 24.1645 22.9776L24.2682 22.8235L27.5434 25.0691C27.4538 24.2932 27.4361 23.6443 27.4957 22.9984C27.5591 22.3062 27.7108 21.6201 27.9566 20.7873C27.9221 20.6068 27.8104 20.4077 27.6896 20.1922C27.4284 19.7257 27.1255 19.1854 27.373 18.504L27.4254 18.3599L27.5186 18.4812C28.0228 19.1368 29.173 19.831 30.3994 20.5707C30.9894 20.9267 31.5973 21.2938 32.1614 21.6731C32.622 21.9552 32.9572 22.2618 33.1836 22.5472C33.4752 22.9151 33.5891 23.2556 33.5612 23.4713L33.5599 23.483L33.5058 23.6085C33.1971 24.3266 32.8929 25.0346 32.8612 26.4038C32.9875 26.4466 33.1171 26.486 33.2407 26.5235C33.5507 26.6179 33.826 26.7018 34.0392 26.8417C34.1101 26.8823 34.2006 26.9689 34.2809 27.0689ZM28.4283 32.5499L28.8384 32.3061C29.1959 32.0932 29.6028 31.8507 29.9051 31.6791L29.9848 31.6339L30.0229 31.7183C30.056 31.7913 30.0811 31.9229 30.0722 32.052C30.0651 32.154 30.0375 32.2573 29.9771 32.3364C29.8149 32.5707 29.5826 32.8362 29.3678 33.0825C29.154 33.3274 28.9571 33.5529 28.8696 33.7001C28.8299 33.7892 28.7855 33.9325 28.7496 34.0855C28.7309 34.166 28.7146 34.2485 28.7027 34.327C29.1457 34.0355 29.6304 33.7406 30.1189 33.4435C30.5701 33.1689 31.025 32.8917 31.4489 32.6168L31.4804 32.5977C31.6679 32.4833 31.9697 32.2992 32.0116 32.0815C31.9669 31.964 31.9391 31.8882 31.9178 31.8027C31.8958 31.7141 31.8822 31.6183 31.8665 31.4573L31.8599 31.3884L32.0193 31.3387C32.2742 31.2598 32.4347 31.2099 32.5431 31.0349C32.4347 30.86 32.2742 30.8103 32.0196 30.7311L31.8602 30.6812L31.8668 30.6126C31.8825 30.4518 31.896 30.356 31.9181 30.2672C31.9393 30.1819 31.9672 30.1061 32.0119 29.9886C31.97 29.7707 31.6687 29.5871 31.4812 29.4724L31.4489 29.453C31.0255 29.1784 30.5712 28.9018 30.1202 28.6275C29.6315 28.3301 29.1463 28.0346 28.7027 27.7431C28.7146 27.8214 28.7309 27.9041 28.7496 27.9847C28.7855 28.1379 28.8299 28.2809 28.8696 28.3701C28.9571 28.5172 29.154 28.743 29.3678 28.9876C29.5829 29.2339 29.8149 29.4997 29.9771 29.734C30.0375 29.8129 30.0651 29.9164 30.0722 30.0184C30.0811 30.1475 30.056 30.2788 30.0229 30.3521L29.9848 30.4365L29.9051 30.3913C29.6039 30.2205 29.1992 29.9792 28.8426 29.7665L28.4283 29.5202C28.3833 29.7376 28.3466 29.9625 28.3204 30.1941C28.2898 30.4665 28.2735 30.7475 28.276 31.0344V31.0358C28.2738 31.3226 28.2898 31.6033 28.3204 31.8757C28.3464 32.1073 28.3833 32.3322 28.4283 32.5496V32.5499ZM28.8384 22.4903L28.4283 22.2465C28.3833 22.4639 28.3466 22.6891 28.3204 22.9207C28.2898 23.1931 28.2735 23.4738 28.276 23.7607V23.762C28.2738 24.0489 28.2898 24.3296 28.3204 24.6023C28.3464 24.8339 28.3833 25.0588 28.4283 25.2765L28.8384 25.0327C29.1959 24.8197 29.6028 24.5773 29.9051 24.4057L29.9848 24.3607L30.0226 24.4446C30.0557 24.5176 30.0811 24.6498 30.0722 24.7786C30.0651 24.8805 30.0375 24.9838 29.9771 25.0627C29.8146 25.297 29.5826 25.563 29.3675 25.8093C29.154 26.054 28.9568 26.2794 28.8693 26.4263C28.8296 26.5158 28.7852 26.6588 28.7494 26.812C28.7306 26.8926 28.7143 26.975 28.7025 27.0536C29.1454 26.7623 29.6298 26.4674 30.1178 26.1706C30.5693 25.8957 31.0244 25.6189 31.4486 25.3434L31.4801 25.3242C31.6674 25.2098 31.9694 25.0257 32.0113 24.8078C31.9666 24.6903 31.9388 24.6145 31.9176 24.5293C31.8955 24.4404 31.882 24.3446 31.8662 24.1838L31.8596 24.1152L32.0191 24.0653C32.2739 23.9861 32.4345 23.9364 32.5429 23.7615C32.4345 23.5868 32.2742 23.5369 32.0193 23.458L31.8596 23.408L31.8662 23.3391C31.882 23.1781 31.8955 23.0826 31.9176 22.9937C31.9388 22.9085 31.9666 22.8327 32.0113 22.7152C31.9694 22.4972 31.6674 22.3131 31.4801 22.199L31.4486 22.1796C31.0244 21.9044 30.5693 21.6276 30.1178 21.3527C29.6298 21.0558 29.1452 20.7609 28.7025 20.4696C28.7143 20.5479 28.7306 20.6307 28.7494 20.7109C28.7852 20.8642 28.8296 21.0072 28.8693 21.0966C28.9568 21.2438 29.154 21.4696 29.3678 21.7142C29.5829 21.9605 29.8146 22.2262 29.9771 22.4603C30.0375 22.5392 30.0651 22.6425 30.0722 22.7444C30.0811 22.8732 30.0557 23.0051 30.0226 23.0781L29.9848 23.162L29.9051 23.1167C29.6028 22.9451 29.1962 22.7027 28.8384 22.4897V22.4903ZM31.7885 26.2842L30.0949 27.3274L31.2335 27.4007L30.0951 27.4726C30.7599 27.8822 31.4481 28.264 32.0753 28.7269C32.0833 28.2651 31.994 28.0841 31.9267 27.9477C31.9115 27.9172 31.8974 27.8886 31.8842 27.8566L31.8458 27.7636L31.944 27.7414C32.1399 27.6973 32.2965 27.6462 32.4096 27.5826C32.496 27.534 32.555 27.4787 32.584 27.414L32.5757 27.4004L32.5842 27.3863C32.5553 27.3213 32.4962 27.2658 32.4096 27.2172C32.2968 27.1536 32.1396 27.1025 31.944 27.0583L31.8458 27.0364L31.8845 26.9434C31.8977 26.9112 31.912 26.8826 31.9269 26.852C31.9942 26.7157 32.0836 26.5349 32.0756 26.0729L31.7887 26.2842H31.7885ZM24.2072 25.9873L23.9339 25.8213C23.8856 26.0359 23.8445 26.2753 23.8153 26.5305C23.7836 26.8062 23.7659 27.1 23.7667 27.3999C23.7659 27.7 23.7838 27.9935 23.8153 28.2693C23.8445 28.5247 23.8856 28.7641 23.9339 28.979L24.2158 28.8074C24.6077 28.5683 25.0896 28.2746 25.4259 28.0774L25.4871 28.0416L25.5326 28.0963C25.5613 28.131 25.6311 28.2643 25.62 28.4309C25.6137 28.5286 25.5812 28.6394 25.4992 28.7513C25.3721 28.9418 25.2281 29.1726 25.0899 29.4005C24.8866 29.7357 24.6957 30.0658 24.5876 30.2558C24.5487 30.3455 24.5278 30.4446 24.5253 30.552C24.5233 30.6298 24.5313 30.7131 24.5487 30.8011C25.3484 30.2502 26.1863 29.6277 27.0006 29.114C27.1884 28.9957 27.4913 28.8046 27.5332 28.5769C27.4838 28.4506 27.4527 28.3492 27.4314 28.2404C27.4091 28.1268 27.3978 28.0066 27.3876 27.8419L27.3834 27.7761L27.5412 27.725C27.7972 27.6431 27.9574 27.5917 28.0661 27.4074L28.0653 27.4057L28.0678 27.401L28.0653 27.396L28.0664 27.3935C27.9577 27.2085 27.7975 27.1572 27.5418 27.0753L27.3834 27.0244L27.3876 26.9586C27.3978 26.7937 27.4091 26.6735 27.4314 26.5599C27.4527 26.4511 27.4836 26.3497 27.5332 26.2234C27.4913 25.9957 27.189 25.8049 27.0011 25.6866C26.1894 25.1785 25.3456 24.5481 24.5487 23.9992C24.5311 24.0872 24.5233 24.1705 24.5253 24.2483C24.5278 24.356 24.5487 24.4548 24.5876 24.5445C24.6957 24.7345 24.8869 25.0649 25.0902 25.4003C25.2284 25.628 25.3721 25.8585 25.4992 26.049C25.5809 26.1606 25.6137 26.2717 25.62 26.3691C25.6311 26.536 25.5613 26.6693 25.5326 26.704L25.4871 26.7587L25.4259 26.7226C25.0874 26.5241 24.6009 26.2275 24.2075 25.9876L24.2072 25.9873Z" fill="#D2AE6D"/>
<path d="M78.0012 36.795L77.6719 34.2456C78.2015 34.4714 78.7548 34.6591 79.3318 34.806C79.8818 34.9256 80.4078 34.987 80.9137 34.987C81.6403 34.987 82.2239 34.8368 82.6619 34.5361C83.1 34.2317 83.317 33.8286 83.317 33.3196C83.317 32.667 82.6448 31.8945 81.3007 30.9957L80.951 30.7633C79.6678 29.8817 78.8224 29.1469 78.4219 28.5558C78.0214 27.9646 77.8211 27.2846 77.8211 26.5157C77.8211 25.2478 78.2591 24.2432 79.1313 23.5051C80.0004 22.7668 81.1885 22.3978 82.6854 22.3978C83.0454 22.3978 83.293 22.4011 83.4321 22.4114C83.5711 22.4216 83.8191 22.4455 84.1721 22.4833C84.5288 22.5174 84.9122 22.5891 85.3295 22.6952L85.6012 25.2445C85.3874 25.1523 85.1701 25.0701 84.9461 24.9985C84.7254 24.9302 84.4844 24.8652 84.2232 24.8035C83.7683 24.7044 83.3066 24.653 82.8415 24.653C82.1252 24.653 81.5754 24.7863 81.1885 25.0529C80.7982 25.3228 80.6045 25.6952 80.6045 26.1772C80.6045 26.4915 80.7303 26.8195 80.9846 27.1544C81.2359 27.4928 81.6094 27.8241 82.0981 28.1454L83.0147 28.7365C83.9686 29.338 84.5798 29.772 84.8443 30.0386C85.3364 30.5273 85.6862 30.9954 85.8966 31.443C86.1038 31.894 86.2089 32.393 86.2089 32.95C86.2089 34.2315 85.7303 35.2738 84.7765 36.0699C83.8224 36.866 82.5665 37.2626 81.0152 37.2626C80.4856 37.2626 79.9596 37.2251 79.4402 37.1498C78.9172 37.0712 78.439 36.9549 78.0009 36.7944L78.0012 36.795ZM93.9724 25.0637C93.65 25.959 93.3308 26.8817 93.0186 27.8352L92.0341 30.9893H95.7038C95.439 30.0086 95.2658 29.373 95.1877 29.0789C95.1673 28.997 95.0553 28.6244 94.8482 27.9579C94.5563 26.9225 94.2642 25.959 93.9724 25.0634V25.0637ZM92.0951 22.5624L92.8895 22.5932L94.1931 22.6035L95.276 22.5932L95.9515 22.5624C96.2502 23.7312 96.5693 24.8757 96.902 26C97.2382 27.1244 97.6147 28.3067 98.0324 29.5404C98.8336 31.9154 99.7704 34.4236 100.836 37.0582H97.2551C97.1905 36.7369 97.1227 36.4259 97.0515 36.1219C96.9836 35.8175 96.8987 35.4896 96.7969 35.1342C96.6477 34.5089 96.4574 33.8424 96.2298 33.1421H91.4877C91.301 33.7436 91.1211 34.3759 90.9515 35.0353C90.9107 35.2028 90.8566 35.4421 90.7852 35.7565C90.7173 36.0708 90.6257 36.5048 90.5135 37.0585H87.2107C88.4632 33.9282 89.5158 31.1229 90.3642 28.6382C91.1722 26.2497 91.7492 24.2232 92.0954 22.5624H92.0951ZM103.436 22.6238H107.245C107.486 23.4099 107.723 24.1685 107.958 24.8893C108.192 25.6138 108.47 26.4099 108.786 27.2779C108.98 27.818 109.183 28.3783 109.394 28.9592C109.608 29.5401 109.814 30.0938 110.022 30.62C110.205 31.1087 110.436 31.6896 110.707 32.3627C111.298 30.8422 111.882 29.2086 112.456 27.4692C112.982 25.894 113.471 24.2776 113.929 22.6235H117.68C117.68 23.5429 117.721 24.4928 117.809 25.4666C117.873 26.2083 117.978 27.1002 118.124 28.1493C118.253 28.9967 118.379 29.8409 118.504 30.6814C118.841 33.1316 119.251 35.2572 119.736 37.0579H116.267C116.267 36.3915 116.25 35.7012 116.216 34.994C116.182 34.2937 116.142 33.617 116.097 32.9644C116.077 32.6704 116.023 32.0384 115.938 31.0712C115.938 30.5175 115.907 29.9436 115.843 29.3558C115.782 28.7646 115.704 28.1837 115.609 27.6164C115.517 27.0491 115.425 26.4924 115.331 25.9453C114.601 27.8558 113.908 29.7828 113.253 31.7307C112.948 32.6534 112.663 33.5589 112.398 34.4442C112.16 35.2266 111.909 36.0983 111.651 37.0585H109.503C109.02 35.2714 108.454 33.4329 107.802 31.5533C107.181 29.7287 106.465 27.8421 105.657 25.884C105.602 26.3316 105.538 26.8717 105.456 27.497C105.358 28.2523 105.29 28.8229 105.256 29.2092C105.198 29.8686 105.168 30.4803 105.168 31.0407C105.168 31.543 105.137 32.1511 105.08 32.8689C105.018 33.5864 104.961 34.3109 104.903 35.0456C104.849 35.7803 104.822 36.4501 104.822 37.0585H101.509C101.94 34.9842 102.32 32.7253 102.653 30.2821C102.693 29.9814 102.805 29.1647 102.992 27.8285C103.131 26.8206 103.233 25.9698 103.298 25.2759C103.393 24.2882 103.437 23.4032 103.437 22.6241L103.436 22.6238ZM121.804 37.0582C121.858 36.5184 121.913 35.9475 121.974 35.353C122.031 34.7549 122.062 34.1981 122.062 33.6853C122.062 33.183 122.069 32.7251 122.082 32.3047C122.126 30.8216 122.15 29.9877 122.15 29.8C122.15 29.3147 122.143 28.8704 122.13 28.4708C122.086 27.0799 122.062 26.3316 122.062 26.2189C122.062 25.7301 122.055 25.3645 122.038 25.122C122.021 24.8794 121.943 24.0455 121.804 22.6241H125.164C126.451 22.6241 127.395 22.6549 127.999 22.7129C128.603 22.7746 129.129 22.8734 129.581 23.0137C130.395 23.2527 131.037 23.6903 131.502 24.319C131.97 24.9513 132.205 25.6893 132.205 26.5368C132.205 27.4834 131.909 28.2692 131.319 28.8945C130.728 29.5165 129.866 29.9505 128.725 30.1896C129.15 30.3501 129.54 30.5964 129.896 30.931C130.07 31.0918 130.246 31.2831 130.419 31.5052C130.596 31.7307 130.776 31.987 130.962 32.2808C131.081 32.4688 131.407 33.1216 131.936 34.2456C132.425 35.2983 132.924 36.2379 133.426 37.0579H129.808C128.871 34.5086 128.083 32.8034 127.449 31.9456C126.811 31.0879 126.081 30.6608 125.256 30.6608H125.029V31.2998C125.029 31.5425 125.039 31.9423 125.066 32.5027C125.086 33.0699 125.096 33.5142 125.096 33.8355C125.096 34.3414 125.127 34.9323 125.191 35.6126C125.252 36.2893 125.297 36.7711 125.317 37.0582H121.804H121.804ZM125.029 29.1336L125.334 29.1644H125.823C126.947 29.1644 127.799 28.9629 128.379 28.563C128.959 28.1631 129.252 27.5925 129.252 26.8442C129.252 26.1572 129.004 25.6344 128.505 25.2756C128.006 24.9168 127.276 24.7358 126.312 24.7358L125.616 24.7461L125.097 24.7769L125.086 25.1665C125.086 25.6927 125.076 26.3966 125.056 27.2749C125.035 28.1531 125.029 28.7751 125.029 29.1339V29.1336ZM135.216 22.6238H138.817C138.739 23.4235 138.688 23.9394 138.668 24.1649C138.61 24.8177 138.58 25.3645 138.58 25.7985C138.58 26.1708 138.573 26.5879 138.559 27.0491C138.525 28.1973 138.508 28.9423 138.508 29.2908C138.508 31.6147 138.722 33.1352 139.146 33.8597C139.567 34.5841 140.341 34.9462 141.461 34.9462C142.5 34.9462 143.237 34.5977 143.668 33.9038C144.096 33.2102 144.313 31.9662 144.313 30.1721C144.313 29.6254 144.303 28.8906 144.282 27.9682C144.262 27.0488 144.252 26.3996 144.252 26.0273C144.252 25.46 144.238 24.9132 144.208 24.3904C144.177 23.8675 144.136 23.2763 144.082 22.6235H147.443C147.361 23.3719 147.283 24.1407 147.208 24.9371C147.13 25.7299 147.093 26.4304 147.093 27.0385C147.093 27.5647 147.083 28.0809 147.062 28.5899C147.005 30.1105 146.974 30.9307 146.974 31.0504V31.7304C146.974 32.619 146.842 33.4118 146.58 34.109C146.319 34.806 145.935 35.4041 145.433 35.9031C144.462 36.8769 143.111 37.3656 141.373 37.3656C139.584 37.3656 138.202 36.8769 137.235 35.9031C136.753 35.411 136.373 34.8026 136.101 34.0818C135.83 33.364 135.694 32.5474 135.694 31.6419V31.4814C135.694 31.1193 135.68 30.6442 135.653 30.0494C135.595 28.7165 135.564 27.8147 135.564 27.3465C135.564 26.7623 135.544 26.1847 135.503 25.6174C135.497 25.4908 135.402 24.4931 135.215 22.6238H135.216ZM150.505 22.6238H154.015C154.015 22.9517 153.994 23.3449 153.953 23.8061C153.862 24.886 153.814 25.583 153.814 25.8973L153.706 29.3899C154.574 28.3475 155.348 27.261 156.028 26.1333C156.71 25.0024 157.297 23.83 157.796 22.6238H161.714C160.8 23.7925 159.942 24.9271 159.141 26.0273C158.872 26.386 158.614 26.745 158.363 27.0969C158.112 27.4523 157.847 27.828 157.569 28.2281C157.264 28.6688 156.998 29.0517 156.771 29.3694C157.097 29.5848 157.426 29.8717 157.756 30.2374C158.088 30.5997 158.479 31.1054 158.93 31.7513L160.003 33.3437C160.546 34.1845 161.058 34.9226 161.534 35.5582C161.992 36.1699 162.406 36.6722 162.78 37.0585H158.53C157.742 35.3019 156.948 33.8394 156.143 32.664C155.339 31.4886 154.531 30.5964 153.716 29.9916C153.716 30.4973 153.723 30.9827 153.737 31.4405C153.778 32.8245 153.798 33.5831 153.798 33.723C153.798 34.2392 153.818 34.8062 153.866 35.4249C153.872 35.5582 153.924 36.1049 154.015 37.0585H150.505C150.505 36.7097 150.559 35.9444 150.665 34.7554C150.716 34.1609 150.743 33.7028 150.743 33.3748C150.743 32.8795 150.749 32.4352 150.763 32.0353C150.81 30.6378 150.834 29.8961 150.834 29.8006C150.834 29.353 150.828 28.9429 150.814 28.5702C150.767 27.2682 150.743 26.5437 150.743 26.3968C150.743 26.1031 150.692 25.3409 150.583 24.1038C150.532 23.4854 150.505 22.9898 150.505 22.6241L150.505 22.6238ZM176.33 24.7152C175.19 24.7152 174.331 25.1423 173.754 25.9967C173.176 26.8508 172.888 28.1326 172.888 29.8411C172.888 31.543 173.176 32.8209 173.754 33.6786C174.331 34.5364 175.19 34.9667 176.33 34.9667C177.457 34.9667 178.312 34.5363 178.896 33.675C179.48 32.8139 179.772 31.5358 179.772 29.8409C179.772 28.1459 179.484 26.8678 178.907 26.0067C178.33 25.1456 177.471 24.715 176.33 24.715V24.7152ZM177.552 36.8977C178.01 37.0651 178.499 37.1984 179.019 37.2976C179.538 37.3967 180.034 37.4481 180.502 37.4481C180.862 37.4481 181.218 37.4275 181.582 37.3831C181.941 37.3386 182.294 37.2737 182.637 37.1881L182.271 39.5767C182.118 39.6178 181.955 39.6586 181.785 39.6964C181.612 39.7375 181.392 39.7786 181.127 39.823C180.862 39.8674 180.58 39.888 180.282 39.888C179.739 39.888 179.209 39.823 178.693 39.6967C178.177 39.5703 177.678 39.3823 177.203 39.1294L176.269 38.6304C174.891 37.889 173.819 37.3864 173.058 37.1201L173.394 36.5084C172.247 36.0266 171.375 35.2269 170.774 34.1096C170.173 32.9922 169.874 31.6047 169.874 29.9439C169.874 27.562 170.441 25.6927 171.578 24.3429C172.716 22.9931 174.291 22.3164 176.307 22.3164C178.313 22.3164 179.898 22.9931 181.063 24.3429C182.227 25.6927 182.807 27.5414 182.807 29.8822C182.807 31.8845 182.342 33.5078 181.409 34.7552C180.475 36.0025 179.189 36.7167 177.553 36.8977H177.552ZM188.37 30.8935C187.634 29.4174 186.846 27.9582 186.011 26.516C185.224 25.1493 184.416 23.8506 183.588 22.6238H187.271C187.447 23.1775 187.77 23.953 188.228 24.9441C188.69 25.9384 189.284 27.1413 190.006 28.5491C190.634 27.4009 191.181 26.3449 191.646 25.3847C191.86 24.9507 192.077 24.4759 192.301 23.9564C192.495 23.5087 192.681 23.0645 192.858 22.6235H196.032C195.316 23.6898 194.565 24.8993 193.774 26.2458C193.391 26.895 192.99 27.5989 192.573 28.3578C192.159 29.1197 191.717 29.933 191.252 30.8011C191.252 31.1565 191.269 31.8945 191.303 33.0155C191.317 33.4598 191.324 33.8699 191.324 34.2356C191.324 34.6491 191.334 35.0112 191.358 35.3258C191.381 35.6401 191.449 36.2177 191.561 37.0582H188.041C188.109 36.5184 188.167 36.0125 188.214 35.541C188.265 35.0695 188.289 34.6185 188.289 34.1845C188.289 33.846 188.303 33.3096 188.33 32.5854C188.357 31.8573 188.371 31.2937 188.371 30.8938L188.37 30.8935ZM197.678 22.6238H206.517C206.565 22.9828 206.629 23.3174 206.718 23.632C206.762 23.8028 206.813 23.9702 206.87 24.1343C206.928 24.2948 206.993 24.4623 207.064 24.6264C206.891 24.8691 206.473 25.4669 205.811 26.4205C205.601 26.7212 205.193 27.3123 204.6 28.1873C203.968 29.1097 203.574 29.6873 203.415 29.9197C202.933 30.6508 202.559 31.2115 202.301 31.6044C202.121 31.8812 201.765 32.4349 201.229 33.2685C200.967 33.6786 200.621 34.2254 200.183 34.9154H201.157C201.595 34.9154 202.043 34.9051 202.501 34.8845C203.72 34.8298 204.382 34.8026 204.487 34.8026C204.912 34.8026 205.37 34.7685 205.862 34.6932C206.154 34.6488 206.561 34.5702 207.084 34.4644L206.677 37.0582H197.1C197.08 36.9455 197.053 36.8155 197.016 36.6756C196.979 36.532 196.934 36.3782 196.883 36.2107C196.829 36.0433 196.778 35.8861 196.727 35.7356C196.676 35.5887 196.612 35.418 196.534 35.223C198.105 33.0633 199.46 31.1429 200.6 29.4549C201.741 27.7666 202.749 26.1914 203.625 24.7255H202.657C202.26 24.7255 201.724 24.7425 201.048 24.7769C200.373 24.811 199.894 24.828 199.616 24.828C199.232 24.828 198.811 24.8588 198.353 24.9271C198.041 24.9749 197.667 25.0435 197.229 25.1356L197.677 22.6238H197.678ZM210.055 22.6238H213.863C214.104 23.4099 214.342 24.1685 214.576 24.8893C214.811 25.6138 215.089 26.4099 215.404 27.2779C215.598 27.818 215.802 28.3783 216.012 28.9592C216.226 29.5401 216.433 30.0938 216.64 30.62C216.823 31.1087 217.054 31.6896 217.326 32.3627C217.916 30.8422 218.5 29.2086 219.074 27.4692C219.6 25.894 220.089 24.2776 220.547 22.6235H224.298C224.298 23.5429 224.339 24.4928 224.427 25.4666C224.492 26.2083 224.597 27.1002 224.743 28.1493C224.872 28.9967 224.997 29.8409 225.123 30.6814C225.459 33.1316 225.869 35.2572 226.355 37.0579H222.886C222.886 36.3915 222.869 35.7012 222.835 34.994C222.801 34.2937 222.76 33.617 222.716 32.9644C222.695 32.6704 222.641 32.0384 222.556 31.0712C222.556 30.5175 222.526 29.9436 222.462 29.3558C222.4 28.7646 222.322 28.1837 222.227 27.6164C222.136 27.0491 222.044 26.4924 221.949 25.9453C221.219 27.8558 220.527 29.7828 219.872 31.7307C219.566 32.6534 219.281 33.5589 219.016 34.4442C218.779 35.2266 218.528 36.0983 218.27 37.0585H216.121C215.639 35.2714 215.072 33.4329 214.42 31.5533C213.799 29.7287 213.083 27.8421 212.275 25.884C212.221 26.3316 212.156 26.8717 212.075 27.497C211.976 28.2523 211.908 28.8229 211.875 29.2092C211.817 29.8686 211.786 30.4803 211.786 31.0407C211.786 31.543 211.756 32.1511 211.698 32.8689C211.637 33.5864 211.579 34.3109 211.521 35.0456C211.467 35.7803 211.44 36.4501 211.44 37.0585H208.127C208.558 34.9842 208.938 32.7253 209.271 30.2821C209.312 29.9814 209.424 29.1647 209.611 27.8285C209.75 26.8206 209.852 25.9698 209.916 25.2759C210.011 24.2882 210.055 23.4032 210.055 22.6241L210.055 22.6238ZM228.463 22.6238H236.661L236.909 25.0468C236.596 24.999 236.288 24.9513 235.982 24.8966C235.653 24.8488 235.337 24.8247 235.039 24.8247C234.801 24.8247 234.462 24.8144 234.02 24.7905C233.579 24.7666 233.29 24.7563 233.158 24.7563H231.715V28.3445H236.889L236.481 30.6578C235.972 30.5964 235.602 30.5553 235.371 30.5381C235.144 30.5176 234.954 30.5073 234.801 30.5073C234.56 30.5073 234.227 30.497 233.796 30.4765C233.365 30.4628 233.09 30.4559 232.978 30.4559H231.715V34.9256H232.771C233.036 34.9256 233.409 34.912 233.895 34.8845C234.373 34.864 234.682 34.8537 234.828 34.8537C235.106 34.8537 235.327 34.8468 235.487 34.8299C235.646 34.8129 236.152 34.741 237.007 34.6147L236.58 37.0579H228.463C228.541 36.2038 228.592 35.6432 228.613 35.3766C228.67 34.6624 228.701 34.0679 228.701 33.5928C228.701 33.0938 228.708 32.6359 228.721 32.2225C228.766 30.7666 228.789 29.9603 228.789 29.7998C228.789 29.3522 228.783 28.942 228.769 28.5694C228.725 27.2607 228.701 26.5329 228.701 26.3857C228.701 26.085 228.647 25.3231 228.541 24.0963C228.49 23.4813 228.463 22.9892 228.463 22.6235V22.6238ZM242.255 37.0582C242.323 36.4293 242.381 35.8142 242.432 35.2128C242.479 34.608 242.507 34.0337 242.507 33.4939C242.507 32.9405 242.513 32.4177 242.524 31.922C242.571 30.1929 242.595 29.1814 242.595 28.8807L242.585 26.2663V26.0578V25.8768V25.7263V25.5963V25.4869C242.585 25.3603 242.581 25.2306 242.575 25.1043C242.568 24.9777 242.554 24.8549 242.534 24.735C241.712 24.735 240.921 24.7794 240.164 24.8649C239.482 24.9266 238.864 25.0257 238.314 25.1656L238.623 22.6232H249.438L249.717 25.1656C249.18 25.0324 248.566 24.9332 247.863 24.8649C247.52 24.8308 247.147 24.8035 246.747 24.7761C246.342 24.7486 245.932 24.735 245.507 24.735L245.447 26.4982L245.436 28.3672C245.436 29.1361 245.443 29.84 245.457 30.4792C245.498 32.3963 245.518 33.3701 245.518 33.4043C245.518 33.9785 245.549 34.6174 245.606 35.325C245.633 35.6051 245.694 36.1827 245.786 37.0574H242.256L242.255 37.0582Z" fill="#17335D"/>
<path d="M27.8191 41.6119C24.0868 41.6119 20.7076 40.0888 18.2621 37.6272C15.8168 35.1654 14.3039 31.7636 14.3039 28.0063C14.3039 24.25 15.8168 20.8476 18.2621 18.3863C20.7076 15.9236 24.0871 14.4005 27.8191 14.4005C31.5511 14.4005 34.9305 15.9247 37.3755 18.3863C39.8208 20.8479 41.3337 24.2488 41.3337 28.0063C41.3337 31.7636 39.8208 35.1654 37.3755 37.6272C34.9303 40.0888 31.5508 41.6119 27.8191 41.6119ZM27.8191 0.000277947C25.1358 0.000277947 22.5217 0.392081 20.0334 1.1207C16.8269 2.06119 13.7605 3.60812 11.0902 5.63154C10.0919 6.39015 9.89306 7.82073 10.6469 8.82592C11.4008 9.83082 12.8218 10.0302 13.8203 9.27159C16.0725 7.56083 18.5784 6.28852 21.2921 5.49326C23.3445 4.89237 25.5344 4.56887 27.8191 4.56887C34.2487 4.56887 40.0695 7.19235 44.2818 11.4338C48.4954 15.6742 51.1011 21.534 51.1011 28.0063C51.1011 31.7378 50.2339 35.3131 48.6559 38.4908C47.3876 41.0446 45.6615 43.3551 43.558 45.2958L40.4336 41.0071C43.9259 37.5406 45.8722 32.9542 45.8722 28.0063C45.8722 22.9879 43.8515 18.444 40.5851 15.1555C37.3181 11.867 32.8047 9.83193 27.8191 9.83193C22.8337 9.83193 18.32 11.867 15.0533 15.1555C11.7864 18.444 9.76562 22.9879 9.76562 28.0063C9.76562 33.0256 11.7864 37.5695 15.0533 40.8577C18.32 44.1465 22.8337 46.1808 27.8191 46.1808C31.0984 46.1808 34.1739 45.2997 36.825 43.7617L41.3425 49.9555C42.0914 50.9607 43.5086 51.1648 44.5069 50.4106C47.9829 47.7857 50.779 44.3903 52.6974 40.5259C54.5962 36.702 55.6399 32.4317 55.6399 28.0063C55.6399 20.2731 52.5253 13.2707 47.4913 8.20282C42.4566 3.13552 35.5018 0 27.8191 0V0.000277947Z" fill="#17335D"/>
<path d="M9.07144 10.3776C8.08755 9.60341 6.66647 9.77973 5.89773 10.7702C4.01049 13.1993 2.51465 15.938 1.50594 18.8903C-0.253587 24.0359 -0.475079 29.6802 0.861598 34.9527C1.1697 36.1744 2.40432 36.9128 3.61798 36.6029C4.83219 36.2927 5.56617 35.0501 5.2578 33.8273C4.1382 29.4144 4.32328 24.679 5.79649 20.3711C6.64798 17.8806 7.89612 15.5876 9.46146 13.5728C10.2302 12.5823 10.0556 11.1517 9.07171 10.3776H9.07144Z" fill="#D2AE6D"/>
<path d="M15.5509 47.9405C13.8589 46.8829 12.3151 45.6166 10.9558 44.1813C9.5918 42.7394 8.40903 41.1255 7.44583 39.3803C6.83873 38.2821 5.4615 37.8865 4.37004 38.4968C3.27857 39.1082 2.88523 40.4955 3.49261 41.594C4.64642 43.6849 6.05564 45.6089 7.6756 47.3219C9.30686 49.0451 11.1491 50.5573 13.1572 51.8135C14.2194 52.4786 15.6171 52.1512 16.2777 51.0819C16.9383 50.0123 16.6131 48.6058 15.5509 47.9405Z" fill="#D2AE6D"/>
<path d="M27.4523 51.4491C26.3421 51.433 25.247 51.3364 24.1757 51.1679C23.0881 50.9965 22.0212 50.7472 20.9832 50.4267C19.7889 50.063 18.5267 50.7419 18.1642 51.944C17.802 53.1466 18.477 54.4183 19.6714 54.7821C20.904 55.1625 22.1781 55.4588 23.4844 55.6648C24.7604 55.8658 26.0684 55.9808 27.3996 56C28.6474 56.0144 29.6716 55.0084 29.6862 53.7511C29.7011 52.4949 28.7007 51.4639 27.4523 51.4494V51.4491Z" fill="#D2AE6D"/>
<path d="M36.2901 49.8614C35.8827 50.0214 35.4711 50.1694 35.0593 50.3054C34.498 50.4892 33.9502 50.6431 33.3886 50.7847C32.1741 51.0899 31.4368 52.3288 31.74 53.5503C32.0431 54.7718 33.2739 55.5152 34.4873 55.21C35.1404 55.0456 35.8148 54.854 36.4592 54.6422C36.9623 54.4767 37.4558 54.2987 37.9385 54.109C39.1033 53.6506 39.679 52.328 39.2236 51.1554C38.7684 49.9822 37.4546 49.4032 36.2898 49.8617L36.2901 49.8614Z" fill="#D2AE6D"/>
</svg>
