<svg width="44" height="44" viewBox="0 0 44 44" fill="none" xmlns="http://www.w3.org/2000/svg">
<path fill-rule="evenodd" clip-rule="evenodd" d="M35.5361 32.8272C35.3574 32.8311 35.1783 32.8331 34.9987 32.8331C21.8359 32.8331 11.1654 22.1626 11.1654 8.99979C11.1654 8.82019 11.1674 8.64102 11.1713 8.46231C7.20494 11.6399 4.66536 16.5255 4.66536 21.9997C4.66536 31.5727 12.4258 39.3331 21.9987 39.3331C27.4729 39.3331 32.3585 36.7935 35.5361 32.8272ZM38.1752 28.2424C37.1415 28.4117 36.0804 28.4998 34.9987 28.4998C24.2291 28.4998 15.4987 19.7693 15.4987 8.99979C15.4987 7.91809 15.5868 6.85695 15.7562 5.82317C16.0424 4.07595 16.5609 2.40686 17.2789 0.848633C15.4126 1.26325 13.6369 1.91856 11.9861 2.78032C5.06002 6.39594 0.332031 13.6457 0.332031 21.9997C0.332031 33.9659 10.0325 43.6664 21.9987 43.6664C30.3527 43.6664 37.6024 38.9385 41.2181 32.0124C42.0798 30.3616 42.7351 28.5859 43.1498 26.7197C41.5915 27.4376 39.9225 27.9561 38.1752 28.2424Z" fill="white"/>
</svg>
