<svg width="41" height="40" viewBox="0 0 41 40" fill="none" xmlns="http://www.w3.org/2000/svg">
<path d="M0.0859375 20.0041C0.0883131 29.8429 7.39184 38.2201 17.3115 39.7621V25.7841H12.1318V20.0041H17.3176V15.6041C17.0858 13.5192 17.8128 11.4413 19.3014 9.93395C20.79 8.42663 22.886 7.64612 25.0208 7.80409C26.5532 7.82833 28.0817 7.96202 29.5941 8.20409V13.1221H27.0135C26.125 13.0081 25.2318 13.2955 24.5855 13.9034C23.9391 14.5113 23.6096 15.3739 23.6896 16.2481V20.0041H29.3471L28.4426 25.7861H23.6896V39.7621C34.4175 38.1013 41.9403 28.5036 40.808 17.9222C39.6757 7.34083 30.2848 -0.520053 19.4385 0.0344455C8.59226 0.588944 0.0876616 9.36471 0.0859375 20.0041Z" fill="white"/>
</svg>
