<svg width="41" height="40" viewBox="0 0 41 40" fill="none" xmlns="http://www.w3.org/2000/svg">
<circle cx="20.9961" cy="20" r="20" fill="white"/>
<path d="M11.0039 20.002C11.0051 24.9214 14.5823 29.1101 19.4409 29.881V22.892H16.9039V20.002H19.4439V17.802C19.3304 16.7596 19.6864 15.7206 20.4155 14.967C21.1447 14.2133 22.1713 13.8231 23.2169 13.902C23.9674 13.9142 24.7161 13.981 25.4569 14.102V16.561H24.1929C23.7578 16.504 23.3203 16.6478 23.0037 16.9517C22.6871 17.2557 22.5257 17.6869 22.5649 18.124V20.002H25.3359L24.8929 22.893H22.5649V29.881C27.8194 29.0506 31.504 24.2518 30.9494 18.9611C30.3948 13.6704 25.7952 9.73997 20.4827 10.0172C15.1703 10.2945 11.0048 14.6824 11.0039 20.002Z" fill="#202020"/>
</svg>
