<svg width="39" height="39" viewBox="0 0 39 39" fill="none" xmlns="http://www.w3.org/2000/svg">
<path d="M21.5962 4.68167C21.4986 4.46181 21.2802 4.31982 21.0395 4.31982C20.7988 4.31982 20.5804 4.46175 20.4828 4.68167L18.2012 9.81407C18.0643 10.1217 18.203 10.4818 18.5103 10.6183C18.8174 10.7561 19.178 10.6166 19.3146 10.3092L19.6007 9.66557H22.4779L22.764 10.3092C22.8649 10.5362 23.0875 10.6713 23.321 10.6713C23.4037 10.6713 23.488 10.6543 23.5683 10.6183C23.8757 10.4818 24.0143 10.1217 23.8775 9.81407L21.5962 4.68167ZM20.1426 8.44682L21.0395 6.42948L21.9363 8.44682H20.1426Z" fill="black"/>
<path d="M26.5876 4.31982H25.3594C25.0229 4.31982 24.75 4.5927 24.75 4.9292V10.0616C24.75 10.3981 25.0229 10.671 25.3594 10.671H26.5876C28.3393 10.671 29.7642 9.24601 29.7642 7.49436C29.7642 5.74387 28.3393 4.31982 26.5876 4.31982ZM26.5876 9.45216H25.9688V5.53857H26.5876C27.6671 5.53857 28.5455 6.41601 28.5455 7.49436C28.5455 8.57381 27.6671 9.45216 26.5876 9.45216Z" fill="black"/>
<path d="M32.6803 6.83546C31.602 6.61261 31.5612 6.49031 31.5919 6.16539C31.6707 5.61939 32.2352 5.54858 32.4063 5.53993C32.8484 5.51525 33.356 5.72085 33.4819 6.22578C33.5634 6.55216 33.8948 6.75185 34.2204 6.66971C34.547 6.58848 34.7458 6.25789 34.6643 5.9312C34.4143 4.92787 33.4524 4.26615 32.3449 4.3227C31.3094 4.37504 30.5218 5.04572 30.382 6.01993C30.232 7.57402 31.6102 7.85878 32.4336 8.02898C33.4559 8.24025 33.646 8.36523 33.6344 8.76602C33.5872 9.17869 33.1691 9.40397 32.7757 9.44443C32.3154 9.49172 31.7498 9.3058 31.532 8.64493C31.4266 8.32568 31.0827 8.15104 30.7625 8.25695C30.443 8.36231 30.2692 8.70685 30.3745 9.0264C30.7551 10.1809 31.7513 10.6695 32.651 10.6695C32.7349 10.6695 32.8183 10.665 32.8998 10.6567C33.9555 10.5487 34.7374 9.84467 34.849 8.8562C34.9021 7.29456 33.5113 7.00712 32.6803 6.83546Z" fill="black"/>
<path d="M35.4677 1.36279H17.7964C16.2048 1.36279 14.9203 2.63925 14.8721 4.28706L14.8724 11.4689C14.8489 12.2286 15.1334 12.9537 15.674 13.5113C16.2287 14.0838 17.0023 14.4119 17.7964 14.4119H20.4345L19.9488 17.5508C19.9432 17.5876 19.9408 17.6252 19.942 17.6627C19.9581 18.1837 20.1985 18.6002 20.5856 18.7773C20.6833 18.8219 20.8249 18.8668 21.001 18.8665C21.2402 18.8665 21.5425 18.7841 21.8841 18.5071C21.9103 18.4857 21.935 18.4622 21.9573 18.4369L25.5016 14.412H35.4677C37.0801 14.412 38.3916 13.1005 38.3916 11.488V4.28712C38.3916 2.67472 37.0801 1.36279 35.4677 1.36279ZM37.1729 11.488C37.1729 12.4283 36.4079 13.1933 35.4677 13.1933H25.2264C25.0514 13.1933 24.8848 13.2685 24.7691 13.3998L21.1967 17.4562L21.7475 13.8957C21.7745 13.7199 21.7236 13.5411 21.6079 13.406C21.4922 13.2709 21.3232 13.1933 21.1452 13.1933H17.7963C17.3301 13.1933 16.8755 13.0001 16.549 12.663C16.2402 12.3444 16.0771 11.9337 16.0908 11.488L16.0905 4.30498C16.1191 3.33857 16.8683 2.5816 17.7963 2.5816H35.4676C36.4079 2.58154 37.1729 3.34655 37.1729 4.28712V11.488Z" fill="black"/>
<path d="M13.1275 20H4.87243C2.18573 20 0 22.1857 0 24.8724V33.1277C0 35.8142 2.18573 38 4.87243 38H13.1277C15.8142 38 18 35.8142 18 33.1277V24.8724C18 22.1857 15.8142 20 13.1275 20V20ZM16.9447 33.1277C16.9447 35.2324 15.2324 36.9447 13.1275 36.9447H4.87243C2.76759 36.9447 1.05523 35.2324 1.05523 33.1277V24.8724C1.05523 22.7676 2.76759 21.0552 4.87243 21.0552H13.1277C15.2324 21.0552 16.9447 22.7676 16.9447 24.8724V33.1277Z" fill="black"/>
<path d="M8.99985 24.0781C6.28596 24.0781 4.07812 26.286 4.07812 28.9999C4.07812 31.7137 6.28596 33.9216 8.99985 33.9216C11.7137 33.9216 13.9216 31.7137 13.9216 28.9999C13.9216 26.286 11.7137 24.0781 8.99985 24.0781ZM8.99985 32.8663C6.86796 32.8663 5.13336 31.1319 5.13336 28.9999C5.13336 26.868 6.86796 25.1334 8.99985 25.1334C11.1319 25.1334 12.8663 26.868 12.8663 28.9999C12.8663 31.1319 11.1319 32.8663 8.99985 32.8663Z" fill="black"/>
<path d="M14.0402 22.3306C13.2382 22.3306 12.5859 22.983 12.5859 23.7849C12.5859 24.5869 13.2382 25.2393 14.0402 25.2393C14.8422 25.2393 15.4947 24.5869 15.4947 23.7849C15.4947 22.9829 14.8422 22.3306 14.0402 22.3306ZM14.0402 24.184C13.8202 24.184 13.6412 24.0049 13.6412 23.7849C13.6412 23.5647 13.8202 23.3858 14.0402 23.3858C14.2604 23.3858 14.4395 23.5647 14.4395 23.7849C14.4395 24.0049 14.2604 24.184 14.0402 24.184Z" fill="black"/>
</svg>
