<svg width="29" height="29" viewBox="0 0 29 29" fill="none" xmlns="http://www.w3.org/2000/svg">
<path d="M3.63232 15.7568H2.36238C1.80855 15.7575 1.2776 15.9778 0.885986 16.3694C0.494374 16.761 0.274083 17.292 0.273438 17.8458V26.6546C0.274083 27.2084 0.494374 27.7394 0.885986 28.131C1.2776 28.5226 1.80855 28.7429 2.36238 28.7435H3.63232C4.18614 28.7429 4.71709 28.5226 5.10871 28.131C5.50032 27.7394 5.72061 27.2084 5.72126 26.6546V17.8458C5.72061 17.292 5.50032 16.761 5.10871 16.3694C4.71709 15.9778 4.18614 15.7575 3.63232 15.7568ZM4.65485 26.6546C4.65453 26.9257 4.54669 27.1856 4.355 27.3773C4.16331 27.569 3.90341 27.6768 3.63232 27.6771H2.36238C2.09128 27.6768 1.83139 27.569 1.63969 27.3773C1.448 27.1856 1.34017 26.9257 1.33984 26.6546V17.8458C1.34017 17.5747 1.448 17.3148 1.63969 17.1231C1.83139 16.9314 2.09128 16.8236 2.36238 16.8232H3.63232C3.90341 16.8236 4.16331 16.9314 4.355 17.1231C4.54669 17.3148 4.65453 17.5747 4.65485 17.8458V26.6546Z" fill="black"/>
<path d="M11.3066 17.9819H10.0369C9.48335 17.983 8.95276 18.2034 8.56142 18.595C8.17009 18.9866 7.94994 19.5173 7.94922 20.0709V26.6549C7.94994 27.2087 8.1703 27.7397 8.56196 28.1313C8.95362 28.5229 9.48461 28.7432 10.0385 28.7438H11.3081C11.862 28.7432 12.3931 28.523 12.7848 28.1314C13.1765 27.7398 13.3969 27.2088 13.3976 26.6549V20.0709C13.3969 19.5167 13.1763 18.9855 12.7842 18.5938C12.3922 18.2022 11.8607 17.9821 11.3066 17.9819ZM12.3297 26.6549C12.3293 26.926 12.2214 27.186 12.0296 27.3777C11.8378 27.5694 11.5777 27.6772 11.3066 27.6774H10.0369C9.76608 27.6767 9.50654 27.5687 9.31513 27.377C9.12372 27.1854 9.01603 26.9257 9.01562 26.6549V20.0709C9.01603 19.7998 9.12393 19.5399 9.31567 19.3482C9.50741 19.1565 9.76734 19.0487 10.0385 19.0483H11.3081C11.5793 19.0486 11.8393 19.1564 12.0311 19.3481C12.2229 19.5398 12.3308 19.7997 12.3312 20.0709L12.3297 26.6549Z" fill="black"/>
<path d="M18.9803 13.8599H17.71C17.1561 13.8606 16.6251 14.081 16.2335 14.4727C15.8419 14.8644 15.6217 15.3955 15.6211 15.9494V26.6546C15.6217 27.2084 15.842 27.7394 16.2336 28.131C16.6253 28.5226 17.1562 28.7429 17.71 28.7435H18.9803C19.5341 28.7429 20.0651 28.5226 20.4567 28.131C20.8483 27.7394 21.0686 27.2084 21.0692 26.6546V15.9497C21.0687 15.3958 20.8485 14.8646 20.4569 14.4728C20.0653 14.081 19.5342 13.8606 18.9803 13.8599ZM20.0028 26.6546C20.0025 26.9257 19.8946 27.1856 19.703 27.3773C19.5113 27.569 19.2514 27.6768 18.9803 27.6771H17.71C17.4389 27.6768 17.179 27.569 16.9874 27.3773C16.7957 27.1856 16.6878 26.9257 16.6875 26.6546V15.9497C16.6876 15.6785 16.7953 15.4183 16.987 15.2264C17.1787 15.0346 17.4388 14.9266 17.71 14.9263H18.9803C19.2515 14.9266 19.5115 15.0345 19.7032 15.2263C19.8949 15.4182 20.0026 15.6782 20.0028 15.9494V26.6546Z" fill="black"/>
<path d="M26.6564 8.28564H25.3861C24.8322 8.28629 24.3012 8.50661 23.9095 8.89828C23.5178 9.28995 23.2975 9.82098 23.2969 10.3749V26.6546C23.2976 27.2085 23.518 27.7394 23.9096 28.1311C24.3013 28.5227 24.8323 28.7429 25.3861 28.7436H26.6564C27.2102 28.7429 27.7411 28.5226 28.1328 28.131C28.5244 27.7394 28.7447 27.2085 28.7453 26.6546V10.3749C28.7447 9.82104 28.5244 9.29005 28.1328 8.89839C27.7412 8.50673 27.2102 8.28637 26.6564 8.28564ZM27.6789 26.6546C27.6786 26.9257 27.5707 27.1856 27.379 27.3773C27.1874 27.569 26.9275 27.6769 26.6564 27.6772H25.3861C25.115 27.6769 24.8551 27.569 24.6633 27.3773C24.4716 27.1857 24.3637 26.9258 24.3633 26.6546V10.3749C24.3636 10.1037 24.4715 9.84374 24.6632 9.65199C24.855 9.46024 25.1149 9.35237 25.3861 9.35205H26.6564C26.9275 9.35245 27.1874 9.46036 27.3791 9.6521C27.5707 9.84384 27.6786 10.1038 27.6789 10.3749V26.6546Z" fill="black"/>
<path d="M2.9957 11.8114C3.34304 11.8112 3.68455 11.7221 3.98777 11.5527C4.29099 11.3832 4.54585 11.1391 4.72815 10.8434L8.63302 12.0013C8.63302 12.0168 8.62967 12.0317 8.62967 12.047C8.6276 12.3387 8.68809 12.6275 8.80707 12.8939C8.92605 13.1603 9.10074 13.3981 9.31939 13.5913C9.53804 13.7845 9.79555 13.9285 10.0746 14.0138C10.3536 14.099 10.6477 14.1235 10.9369 14.0855C11.2262 14.0475 11.504 13.9479 11.7515 13.7935C11.9991 13.639 12.2106 13.4333 12.372 13.1902C12.5333 12.9471 12.6406 12.6723 12.6868 12.3842C12.7329 12.0961 12.7167 11.8015 12.6394 11.5202L16.908 9.04579C17.2351 9.37248 17.6637 9.5781 18.1232 9.62879C18.5827 9.67948 19.0458 9.57223 19.4362 9.32468C19.8266 9.07713 20.1212 8.70405 20.2713 8.26681C20.4215 7.82958 20.4183 7.35426 20.2623 6.91907L24.705 3.85025C25.0863 4.17488 25.5726 4.34979 26.0732 4.34241C26.5739 4.33502 27.0549 4.14583 27.4264 3.8101C27.7979 3.47438 28.0347 3.01501 28.0926 2.51763C28.1505 2.02024 28.0256 1.51877 27.7411 1.10667C27.4567 0.694565 27.0321 0.399955 26.5465 0.277741C26.0609 0.155527 25.5474 0.214049 25.1017 0.442399C24.6561 0.670749 24.3087 1.05335 24.1242 1.51889C23.9398 1.98443 23.9309 2.50115 24.0993 2.97275L19.6557 6.04248C19.3245 5.76286 18.9128 5.59616 18.4804 5.56662C18.048 5.53709 17.6174 5.64626 17.2513 5.87826C16.8852 6.11027 16.6027 6.453 16.4448 6.85663C16.2869 7.26026 16.2618 7.70374 16.3733 8.12258L12.1052 10.5979C11.8879 10.3812 11.6243 10.2166 11.3342 10.1165C11.0441 10.0164 10.7351 9.98338 10.4304 10.0199C10.1257 10.0564 9.83325 10.1615 9.57503 10.3273C9.3168 10.4931 9.09953 10.7153 8.93954 10.9772L5.03223 9.81939C5.03223 9.80354 5.03436 9.78892 5.03436 9.77216C5.0343 9.36897 4.91468 8.97484 4.69064 8.63962C4.46659 8.30441 4.14817 8.04315 3.77565 7.8889C3.40313 7.73464 2.99323 7.69431 2.59779 7.77301C2.20234 7.85171 1.83912 8.0459 1.55404 8.33102C1.26895 8.61614 1.07482 8.9794 0.996182 9.37486C0.917545 9.77031 0.957935 10.1802 1.11225 10.5527C1.26656 10.9252 1.52786 11.2436 1.86311 11.4676C2.19836 11.6916 2.5925 11.8111 2.9957 11.8111V11.8114ZM26.0182 1.32196C26.1855 1.32192 26.35 1.36508 26.4958 1.44727C26.6416 1.52946 26.7636 1.64789 26.8502 1.7911C26.9368 1.93431 26.9849 2.09744 26.9899 2.2647C26.995 2.43196 26.9567 2.59769 26.8789 2.74584C26.8011 2.89399 26.6864 3.01954 26.5458 3.11034C26.4052 3.20114 26.2436 3.25411 26.0766 3.26412C25.9095 3.27414 25.7427 3.24085 25.5923 3.16749C25.4419 3.09414 25.313 2.98319 25.2181 2.8454C25.1054 2.68398 25.0454 2.49168 25.0462 2.29483C25.0463 2.03699 25.1487 1.78972 25.3309 1.60732C25.5132 1.42491 25.7603 1.32228 26.0182 1.32196ZM18.3431 6.62657C18.5012 6.6268 18.6569 6.66558 18.7966 6.73953C18.9363 6.81349 19.0559 6.9204 19.145 7.051C19.2577 7.21154 19.3171 7.40334 19.3151 7.59943C19.3153 7.81389 19.2445 8.02239 19.1137 8.19237C18.983 8.36235 18.7996 8.48425 18.5923 8.53902C18.3849 8.5938 18.1653 8.57837 17.9676 8.49515C17.77 8.41193 17.6055 8.2656 17.4997 8.07901C17.4146 7.93361 17.3702 7.76794 17.3712 7.59943C17.3712 7.3416 17.4736 7.09433 17.6559 6.91193C17.8381 6.72952 18.0853 6.62689 18.3431 6.62657ZM10.6711 11.072C10.8419 11.0723 11.0097 11.1178 11.1574 11.2038C11.305 11.2897 11.4274 11.4132 11.512 11.5616C11.5983 11.7076 11.6435 11.8743 11.6427 12.0439C11.6288 12.2927 11.5202 12.5267 11.3391 12.6979C11.1581 12.869 10.9184 12.9644 10.6693 12.9644C10.4201 12.9644 10.1804 12.869 9.99936 12.6979C9.81833 12.5267 9.7097 12.2927 9.69577 12.0439C9.69543 11.9511 9.70856 11.8587 9.73477 11.7697C9.79562 11.5685 9.91941 11.3921 10.088 11.2665C10.2565 11.1409 10.4609 11.0727 10.6711 11.072ZM2.9957 8.80021C3.18808 8.80015 3.37615 8.85714 3.53614 8.96399C3.69612 9.07083 3.82082 9.22272 3.89447 9.40045C3.96812 9.57817 3.98741 9.77375 3.94989 9.96243C3.91237 10.1511 3.81974 10.3244 3.68371 10.4605C3.54767 10.5965 3.37435 10.6891 3.18566 10.7267C2.99698 10.7642 2.8014 10.7449 2.62368 10.6712C2.44595 10.5976 2.29406 10.4729 2.18722 10.3129C2.08037 10.1529 2.02338 9.96485 2.02344 9.77247C2.02376 9.51471 2.1263 9.2676 2.30856 9.08533C2.49083 8.90307 2.73794 8.80053 2.9957 8.80021Z" fill="black"/>
</svg>
