<svg width="39" height="39" viewBox="0 0 39 39" fill="none" xmlns="http://www.w3.org/2000/svg">
<path d="M38.9999 16.3401C38.9999 16.2058 38.9481 16.0591 38.8654 15.9543L33.7993 9.55116V0.629032C33.7993 0.281681 33.5127 0 33.1586 0H5.84136C5.48725 0 5.20067 0.281681 5.20067 0.629032V9.55116L0.134546 15.9543C0.0517683 16.0587 0 16.2061 0 16.3401V38.371C0 38.3773 0.00345976 38.3826 0.00365197 38.389C0.0057022 38.4597 0.0166581 38.5305 0.0437596 38.5989C0.0449129 38.6018 0.0472194 38.604 0.0484367 38.6069C0.0548437 38.6225 0.0657355 38.6346 0.0733598 38.6495C0.100013 38.7018 0.131727 38.7496 0.170874 38.7917C0.187404 38.8094 0.205215 38.8239 0.223667 38.8398C0.263519 38.874 0.306446 38.9022 0.353601 38.9258C0.374616 38.9363 0.393901 38.9473 0.416197 38.9556C0.487314 38.9819 0.561827 39 0.640761 39H38.3593C38.4382 39 38.5127 38.9819 38.5837 38.9555C38.606 38.9473 38.6254 38.9362 38.6465 38.9256C38.6936 38.9021 38.7364 38.8739 38.7763 38.8398C38.7947 38.824 38.8125 38.8094 38.8291 38.7917C38.8681 38.7496 38.8998 38.702 38.9264 38.6498C38.9341 38.6348 38.9451 38.6225 38.9516 38.6068C38.9527 38.6039 38.9551 38.6018 38.9562 38.5989C38.9833 38.5304 38.9943 38.4595 38.9963 38.3888C38.9965 38.3825 39 38.3773 39 38.371V16.3401H38.9999ZM37.7185 17.5054V36.9409L25.1354 25.6161L37.7185 17.5054ZM37.4276 16.1881L33.7993 18.5268V11.6022L37.4276 16.1881ZM32.5179 1.25806V19.3527L24.0959 24.7812C21.0349 22.8288 17.9461 22.8288 14.9033 24.7807L6.48212 19.3527V1.25806H32.5179ZM1.28146 17.5054L13.8647 25.6161L1.28146 36.9409V17.5054ZM5.20067 18.5268L1.57233 16.1881L5.20067 11.6022V18.5268ZM2.28754 37.7419L15.3067 26.025C18.1197 24.0875 20.8634 24.0875 23.6939 26.0256L36.7125 37.7419H2.28754Z" fill="black"/>
<path d="M11.386 13.1146V18.1836C11.3854 18.7872 11.3842 19.5384 11.9122 20.0572C12.2257 20.3652 12.6624 20.5216 13.2105 20.5216H15.702C16.7081 20.5216 17.5265 19.7178 17.5265 18.7301C17.5265 17.9524 17.0191 17.2886 16.2833 17.0417V13.8411C16.637 14.0313 16.9701 14.3757 17.3945 14.8357C18.1322 15.6359 19.0507 16.6316 20.6349 16.6316C22.8436 16.6316 24.0111 15.4863 24.0111 13.3194V12.2278H24.2513C25.5878 12.2278 26.6752 11.1601 26.6752 9.848C26.6752 8.5359 25.5878 7.46825 24.2513 7.46825H24.0111V6.37882C24.0111 4.21036 22.8435 3.06445 20.6349 3.06445C19.0507 3.06445 18.1322 4.06084 17.3939 4.86154C16.7301 5.58241 16.2896 6.02405 15.6426 6.02405H13.4045C11.256 6.02405 9.50781 7.73948 9.50781 9.848C9.50775 11.2318 10.2622 12.4426 11.386 13.1146ZM15.7019 19.2635H13.2105C13.1003 19.2635 12.9032 19.2513 12.8188 19.1683C12.6661 19.0184 12.6668 18.5368 12.6674 18.1851V13.6033C12.9063 13.6485 13.1523 13.6741 13.4045 13.6741H15.0019V17.5675C15.0019 17.9148 15.3478 18.1965 15.702 18.1965C16.0017 18.1965 16.2451 18.4358 16.2451 18.73C16.2451 19.0242 16.0017 19.2635 15.7019 19.2635ZM24.2513 8.72631C24.8813 8.72631 25.3938 9.22941 25.3938 9.848C25.3938 10.4666 24.8813 10.9697 24.2513 10.9697H24.011V8.72631H24.2513ZM22.7296 6.37882V13.3194C22.7296 14.6784 22.193 15.2808 20.9183 15.3579V4.33812C22.193 4.4153 22.7296 5.01842 22.7296 6.37882ZM18.3442 5.70557C18.7695 5.24411 19.159 4.82222 19.6369 4.56872V15.1275C19.159 14.8743 18.7695 14.4526 18.3442 13.9914C17.7888 13.3894 17.1682 12.7296 16.2832 12.5036V7.19462C17.1685 6.96842 17.7886 6.30812 18.3442 5.70557ZM13.4045 7.28211H15.0019V12.416H13.4045C11.9623 12.416 10.7891 11.264 10.7891 9.848C10.7891 8.43331 11.9623 7.28211 13.4045 7.28211Z" fill="black"/>
<path d="M27.9376 10.4773H29.4486C29.8027 10.4773 30.0893 10.1956 30.0893 9.84827C30.0893 9.50092 29.8027 9.21924 29.4486 9.21924H27.9376C27.5835 9.21924 27.2969 9.50092 27.2969 9.84827C27.2969 10.1956 27.5834 10.4773 27.9376 10.4773Z" fill="black"/>
<path d="M28.1487 8.44055C28.3088 8.44055 28.469 8.38186 28.5935 8.26423L29.6803 7.23438C29.935 6.99295 29.9425 6.5949 29.6966 6.34486C29.4507 6.09482 29.0459 6.0884 28.7906 6.32888L27.7038 7.35874C27.4491 7.60016 27.4416 7.99821 27.6875 8.24825C27.8133 8.37632 27.981 8.44055 28.1487 8.44055Z" fill="black"/>
<path d="M28.5933 11.4325C28.3386 11.1911 27.9332 11.1979 27.6873 11.4482C27.442 11.6979 27.4488 12.0963 27.7035 12.3374L28.7903 13.3675C28.9148 13.4855 29.075 13.5442 29.2352 13.5442C29.4028 13.5442 29.5705 13.48 29.6963 13.3519C29.9415 13.1022 29.9347 12.7038 29.68 12.4627L28.5933 11.4325Z" fill="black"/>
</svg>
