<svg width="39" height="39" viewBox="0 0 39 39" fill="none" xmlns="http://www.w3.org/2000/svg">
<path d="M32.5024 6.50646C33.6839 6.50199 34.7138 5.70125 35.0092 4.5572H39V3.25769H35.0092C34.7138 2.11364 33.6839 1.3129 32.5024 1.30843C31.067 1.30843 29.9034 2.47206 29.9034 3.90744C29.9057 4.36999 30.033 4.82327 30.2718 5.2193L29.1302 6.36091C23.6678 -0.755594 13.4706 -2.09652 6.35408 3.36587C-0.762429 8.82827 -2.10336 19.0256 3.35904 26.1421C8.51516 32.8595 17.9667 34.489 25.0745 29.8859L27.0354 31.8469L27.9542 32.7656L33.1847 37.9961C34.515 39.3264 36.6717 39.3264 38.0019 37.9961C39.3322 36.6658 39.3322 34.5091 38.0019 33.1788L32.7714 27.9483L31.8527 27.0296L29.8917 25.0686C33.3727 19.7069 33.3727 12.7988 29.8917 7.43691L31.1912 6.1374C31.587 6.37635 32.0401 6.50386 32.5024 6.50646ZM32.5024 2.60794C33.2202 2.60794 33.8019 3.18971 33.8019 3.90744C33.8019 4.62518 33.2202 5.20695 32.5024 5.20695C31.7847 5.20695 31.2029 4.62518 31.2029 3.90744C31.2029 3.18971 31.7848 2.60794 32.5024 2.60794ZM37.0832 34.0976C37.9154 34.9111 37.9306 36.2452 37.1171 37.0774C36.3036 37.9095 34.9695 37.9247 34.1373 37.1112C34.1258 37.1001 34.1146 37.0888 34.1034 37.0774L28.8729 31.8469L31.8527 28.8671L37.0832 34.0976ZM30.9339 27.9483L27.9542 30.9281L26.1556 29.1296C26.2473 29.0594 26.333 28.9821 26.4233 28.91C26.5137 28.8378 26.6183 28.7514 26.7151 28.6702C26.8574 28.5507 26.9977 28.4298 27.1355 28.3057C27.2063 28.2407 27.2739 28.1757 27.3434 28.1108C27.6098 27.8613 27.8677 27.6033 28.1172 27.3369C28.1822 27.2674 28.2472 27.1998 28.3122 27.129C28.4363 26.9912 28.5571 26.8509 28.6767 26.7086C28.7582 26.6124 28.8381 26.5152 28.9164 26.4169C28.9879 26.3272 29.0652 26.2414 29.1354 26.1498L30.9339 27.9483ZM28.4142 24.9302C28.2095 25.2161 27.9983 25.4962 27.7755 25.7658C27.7105 25.8444 27.641 25.9204 27.5741 25.9978C27.3752 26.2291 27.1699 26.4535 26.9581 26.6709C26.8658 26.7662 26.772 26.86 26.6767 26.9523C26.4601 27.1641 26.2358 27.3694 26.0036 27.5682C25.9263 27.6332 25.8503 27.704 25.7716 27.7696C25.502 27.9925 25.2219 28.2037 24.9361 28.4084C18.2098 33.2137 8.86156 31.6565 4.05622 24.9302C-0.749109 18.204 0.808106 8.85572 7.53436 4.05039C14.2606 -0.754944 23.6089 0.802191 28.4142 7.52852C32.1325 12.7332 32.1325 19.7255 28.4142 24.9302Z" fill="black"/>
</svg>
