<svg width="29" height="29" viewBox="0 0 29 29" fill="none" xmlns="http://www.w3.org/2000/svg">
<g clip-path="url(#clip0)">
<path d="M21.9923 0H2.65886C1.32486 0.00157084 0.243758 1.08267 0.242188 2.41668V17.8834C0.242067 18.9857 0.987853 19.9483 2.05518 20.2237L2.29685 19.288C1.65625 19.1228 1.20862 18.545 1.20886 17.8834V2.41668C1.20886 1.61585 1.85804 0.966671 2.65886 0.966671H21.9923C22.7931 0.966671 23.4423 1.61585 23.4423 2.41668V2.90001H24.409V2.41668C24.4074 1.08267 23.3263 0.00157084 21.9923 0Z" fill="black"/>
<path d="M3.14245 1.93311H2.17578V2.89978H3.14245V1.93311Z" fill="black"/>
<path d="M5.07605 1.93311H4.10938V2.89978H5.07605V1.93311Z" fill="black"/>
<path d="M7.00964 1.93311H6.04297V2.89978H7.00964V1.93311Z" fill="black"/>
<path d="M28.616 26.7251L24.0316 22.1407C24.2724 21.7108 24.465 21.2556 24.6058 20.7835H25.3743V19.8168H24.8136C24.9957 18.6468 24.8553 17.4493 24.4076 16.3532V11.6001H23.441V14.678C23.1539 14.3113 22.83 13.9751 22.4743 13.6746V9.66674H21.5076V12.9989C21.1982 12.8195 20.8749 12.6652 20.5409 12.5373V7.7334H19.5743V12.2439C19.2558 12.1751 18.9327 12.1298 18.6076 12.1081V8.70007H17.6409V12.1081C17.3158 12.1298 16.9928 12.1751 16.6743 12.2439V10.6334H15.7076V12.5373C15.3736 12.6652 15.0504 12.8195 14.7409 12.9989V10.1501H13.7743V13.6746C13.4185 13.9751 13.0946 14.3113 12.8076 14.678V11.1167H11.8409V16.3532C11.3932 17.4493 11.2529 18.6468 11.4349 19.8168H5.07422V20.7835H11.6427C12.7028 24.359 16.4608 26.3982 20.0363 25.3382C20.7409 25.1292 21.4067 24.8067 22.0074 24.3833L26.4826 28.8585C26.6713 29.0472 26.9773 29.0472 27.166 28.8585L28.616 27.4085C28.8047 27.2198 28.8047 26.9138 28.616 26.7251ZM18.1243 24.6501C14.9224 24.6467 12.3277 22.052 12.3242 18.8501C12.3242 15.6469 14.921 13.0501 18.1243 13.0501C21.3275 13.0501 23.9243 15.6469 23.9243 18.8501C23.9243 22.0534 21.3275 24.6501 18.1243 24.6501ZM26.8243 27.8334L22.7585 23.7676C23.0219 23.5186 23.2651 23.2492 23.4859 22.9618L27.5909 27.0668L26.8243 27.8334Z" fill="black"/>
<path d="M18.1263 14.0166C15.4569 14.0166 13.293 16.1806 13.293 18.85C13.293 21.5194 15.4569 23.6833 18.1263 23.6833C20.7957 23.6833 22.9597 21.5194 22.9597 18.85C22.9568 16.1818 20.7945 14.0195 18.1263 14.0166ZM18.1263 22.7166C16.7466 22.7149 15.4724 21.9781 14.7826 20.7833H21.47C20.7802 21.9781 19.506 22.7149 18.1263 22.7166ZM14.3868 19.8166C13.9979 18.3449 14.5171 16.7825 15.7096 15.8364V18.85H16.6763V15.268C16.9863 15.1425 17.3112 15.0581 17.643 15.0166V18.85H18.6097V15.0166C18.9414 15.0581 19.2664 15.1425 19.5763 15.268V18.85H20.543V15.8364C21.7355 16.7825 22.2548 18.3449 21.8659 19.8166H14.3868Z" fill="black"/>
<path d="M24.8907 3.8667H5.5573C4.2233 3.86827 3.1422 4.94937 3.14062 6.28338V21.7501C3.1422 23.0841 4.2233 24.1652 5.5573 24.1668H11.8407V23.2001H5.5573C4.75648 23.2001 4.1073 22.5509 4.1073 21.7501V6.28338C4.1073 5.48255 4.75648 4.83337 5.5573 4.83337H24.8907C25.6915 4.83337 26.3407 5.48255 26.3407 6.28338V21.7501C26.3407 22.1032 26.2118 22.4442 25.9782 22.709L26.7032 23.3485C27.0928 22.9072 27.3076 22.3388 27.3074 21.7501V6.28338C27.3058 4.94937 26.2247 3.86827 24.8907 3.8667Z" fill="black"/>
<path d="M6.04089 5.80029H5.07422V6.76697H6.04089V5.80029Z" fill="black"/>
<path d="M7.97448 5.80029H7.00781V6.76697H7.97448V5.80029Z" fill="black"/>
<path d="M9.90808 5.80029H8.94141V6.76697H9.90808V5.80029Z" fill="black"/>
<path d="M7.00964 15.9502H6.04297V18.8502H7.00964V15.9502Z" fill="black"/>
<path d="M8.94323 13.0498H7.97656V18.8498H8.94323V13.0498Z" fill="black"/>
<path d="M10.8768 14.5H9.91016V18.85H10.8768V14.5Z" fill="black"/>
</g>
<defs>
<clipPath id="clip0">
<rect width="29" height="29" fill="white"/>
</clipPath>
</defs>
</svg>
