<svg width="39" height="37" viewBox="0 0 39 37" fill="none" xmlns="http://www.w3.org/2000/svg">
<path d="M18.3833 20.7956H17.9168V19.2737C17.9168 16.6975 16.5558 15.3359 13.9811 15.3359C12.1277 15.3359 11.0833 16.4898 10.1618 17.5077C9.43459 18.3108 8.80681 19.0044 7.90433 19.0044H5.17877C2.65919 19.0044 0.609375 21.0551 0.609375 23.5759C0.609375 25.2631 1.53093 26.7362 2.89484 27.5277V33.9126C2.89392 34.6282 2.89276 35.5185 3.48459 36.1115C3.83303 36.4602 4.32455 36.6373 4.94526 36.6373H7.9755C9.10705 36.6373 10.0277 35.7167 10.0277 34.5848C10.0277 33.6403 9.38498 32.8426 8.51376 32.6057V31.3186C9.3792 31.2842 10.2527 31.1011 10.6547 30.1717C11.4695 31.0216 12.4469 31.8137 13.9812 31.8137C16.5559 31.8137 17.9168 30.4527 17.9168 27.878V26.354H18.3834C19.9152 26.354 21.1616 25.1076 21.1616 23.5758C21.1615 22.043 19.9151 20.7956 18.3833 20.7956ZM1.82812 23.5759C1.82812 21.7272 3.33133 20.2231 5.17877 20.2231H7.29495V26.9269H5.17877C3.33133 26.9269 1.82812 25.4237 1.82812 23.5759ZM8.80888 34.5848C8.80888 35.0445 8.43485 35.4186 7.97544 35.4186H4.9452C4.65983 35.4186 4.45843 35.362 4.34716 35.2501C4.11212 35.0151 4.11298 34.4048 4.11359 33.9141V28.0151C4.45605 28.0973 4.8115 28.1456 5.17877 28.1456H7.29495V33.1438C7.29495 33.4803 7.56783 33.7531 7.90433 33.7531H7.97544C8.43485 33.7532 8.80888 34.1263 8.80888 34.5848ZM8.5137 30.0988V28.2602C8.92698 28.417 9.29071 28.7235 9.6567 29.0984C9.61874 29.8928 9.35915 30.0659 8.5137 30.0988ZM11.0652 28.824C10.3474 28.0312 9.60527 27.2214 8.5137 26.9946V20.1554C9.60527 19.9284 10.3474 19.1186 11.0652 18.3257C11.6427 17.6878 12.2019 17.0814 12.9337 16.7713V30.3785C12.2018 30.0684 11.6427 29.462 11.0652 28.824ZM16.698 27.8781C16.698 29.7209 15.9274 30.534 14.1526 30.585V16.5647C15.9274 16.6158 16.698 17.4294 16.698 19.2737V27.8781ZM18.3833 25.1354H17.9168V22.0144H18.3833C19.2432 22.0144 19.9428 22.7148 19.9428 23.5759C19.9428 24.4358 19.2432 25.1354 18.3833 25.1354Z" fill="black"/>
<path d="M24.7045 22.9663H22.8672C22.5307 22.9663 22.2578 23.2392 22.2578 23.5757C22.2578 23.9122 22.5307 24.1851 22.8672 24.1851H24.7045C25.041 24.1851 25.3139 23.9122 25.3139 23.5757C25.3139 23.2392 25.041 22.9663 24.7045 22.9663Z" fill="black"/>
<path d="M23.5481 21.489L24.8704 20.2126C25.1126 19.979 25.1194 19.5931 24.8855 19.3511C24.6529 19.1089 24.2664 19.1024 24.0241 19.336L22.7018 20.6124C22.4596 20.846 22.4528 21.2319 22.6867 21.4738C22.806 21.5979 22.9655 21.6601 23.1249 21.6601C23.2773 21.6601 23.4299 21.6033 23.5481 21.489Z" fill="black"/>
<path d="M23.5481 25.6629C23.3065 25.4296 22.9206 25.4361 22.6864 25.6783C22.4528 25.9206 22.4597 26.3062 22.7019 26.5401L24.0242 27.8162C24.1423 27.9302 24.2949 27.987 24.4473 27.987C24.6067 27.987 24.7662 27.9248 24.8858 27.8007C25.1194 27.5585 25.1126 27.1729 24.8703 26.939L23.5481 25.6629Z" fill="black"/>
<path d="M21.5962 3.68167C21.4986 3.46181 21.2802 3.31982 21.0395 3.31982C20.7988 3.31982 20.5804 3.46175 20.4828 3.68167L18.2012 8.81407C18.0643 9.12174 18.203 9.48176 18.5103 9.61833C18.8174 9.7561 19.178 9.61656 19.3146 9.30919L19.6007 8.66557H22.4779L22.764 9.30919C22.8649 9.53624 23.0875 9.67128 23.321 9.67128C23.4037 9.67128 23.488 9.65434 23.5683 9.61833C23.8757 9.48176 24.0143 9.12174 23.8775 8.81407L21.5962 3.68167ZM20.1426 7.44682L21.0395 5.42948L21.9363 7.44682H20.1426Z" fill="black"/>
<path d="M26.5876 3.31982H25.3594C25.0229 3.31982 24.75 3.5927 24.75 3.9292V9.0616C24.75 9.3981 25.0229 9.67097 25.3594 9.67097H26.5876C28.3393 9.67097 29.7642 8.24601 29.7642 6.49436C29.7642 4.74387 28.3393 3.31982 26.5876 3.31982ZM26.5876 8.45216H25.9688V4.53857H26.5876C27.6671 4.53857 28.5455 5.41601 28.5455 6.49436C28.5455 7.57381 27.6671 8.45216 26.5876 8.45216Z" fill="black"/>
<path d="M32.6803 5.83546C31.602 5.61261 31.5612 5.49031 31.5919 5.16539C31.6707 4.61939 32.2352 4.54858 32.4063 4.53993C32.8484 4.51525 33.356 4.72085 33.4819 5.22578C33.5634 5.55216 33.8948 5.75185 34.2204 5.66971C34.547 5.58848 34.7458 5.25789 34.6643 4.9312C34.4143 3.92787 33.4524 3.26615 32.3449 3.3227C31.3094 3.37504 30.5218 4.04572 30.382 5.01993C30.232 6.57402 31.6102 6.85878 32.4336 7.02898C33.4559 7.24025 33.646 7.36523 33.6344 7.76602C33.5872 8.17869 33.1691 8.40397 32.7757 8.44443C32.3154 8.49172 31.7498 8.3058 31.532 7.64493C31.4266 7.32568 31.0827 7.15104 30.7625 7.25695C30.443 7.36231 30.2692 7.70685 30.3745 8.0264C30.7551 9.18086 31.7513 9.66946 32.651 9.66946C32.7349 9.66946 32.8183 9.66501 32.8998 9.65666C33.9555 9.54868 34.7374 8.84467 34.849 7.8562C34.9021 6.29456 33.5113 6.00712 32.6803 5.83546Z" fill="black"/>
<path d="M35.4677 0.362793H17.7964C16.2048 0.362793 14.9203 1.63925 14.8721 3.28706L14.8724 10.4689C14.8489 11.2286 15.1334 11.9537 15.674 12.5113C16.2287 13.0838 17.0023 13.4119 17.7964 13.4119H20.4345L19.9488 16.5508C19.9432 16.5876 19.9408 16.6252 19.942 16.6627C19.9581 17.1837 20.1985 17.6002 20.5856 17.7773C20.6833 17.8219 20.8249 17.8668 21.001 17.8665C21.2402 17.8665 21.5425 17.7841 21.8841 17.5071C21.9103 17.4857 21.935 17.4622 21.9573 17.4369L25.5016 13.412H35.4677C37.0801 13.412 38.3916 12.1005 38.3916 10.488V3.28712C38.3916 1.67472 37.0801 0.362793 35.4677 0.362793ZM37.1729 10.488C37.1729 11.4283 36.4079 12.1933 35.4677 12.1933H25.2264C25.0514 12.1933 24.8848 12.2685 24.7691 12.3998L21.1967 16.4562L21.7475 12.8957C21.7745 12.7199 21.7236 12.5411 21.6079 12.406C21.4922 12.2709 21.3232 12.1933 21.1452 12.1933H17.7963C17.3301 12.1933 16.8755 12.0001 16.549 11.663C16.2402 11.3444 16.0771 10.9337 16.0908 10.488L16.0905 3.30498C16.1191 2.33857 16.8683 1.5816 17.7963 1.5816H35.4676C36.4079 1.58154 37.1729 2.34655 37.1729 3.28712V10.488Z" fill="black"/>
</svg>
