<svg width="39" height="29" viewBox="0 0 39 29" fill="none" xmlns="http://www.w3.org/2000/svg">
<path d="M35.9531 0.484375H3.04688C1.36683 0.484375 0 1.8512 0 3.53125V25.4688C0 27.1488 1.36683 28.5156 3.04688 28.5156H35.9531C37.6332 28.5156 39 27.1488 39 25.4688V3.53125C39 1.8512 37.6332 0.484375 35.9531 0.484375ZM1.21875 25.4688V5.35938H9.14062V27.2969H3.04688C2.03882 27.2969 1.21875 26.4767 1.21875 25.4688ZM35.9531 27.2969H10.3594V5.35938H34.125C34.4615 5.35938 34.7344 5.08653 34.7344 4.75C34.7344 4.41347 34.4615 4.14062 34.125 4.14062H1.21875V3.53125C1.21875 2.52327 2.03882 1.70312 3.04688 1.70312H35.9531C36.9612 1.70312 37.7812 2.52327 37.7812 3.53125V4.14062H36.5625C36.226 4.14062 35.9531 4.41347 35.9531 4.75C35.9531 5.08653 36.226 5.35938 36.5625 5.35938H37.7812V25.4688C37.7812 26.4767 36.9612 27.2969 35.9531 27.2969Z" fill="black"/>
<path d="M3.04688 2.3125C2.88691 2.3125 2.72924 2.37725 2.61574 2.49074C2.50225 2.60424 2.4375 2.76115 2.4375 2.92188C2.4375 3.08252 2.50225 3.23951 2.61574 3.35301C2.72924 3.46643 2.88691 3.53125 3.04688 3.53125C3.20684 3.53125 3.36375 3.46643 3.47801 3.35301C3.5915 3.23951 3.65625 3.08252 3.65625 2.92188C3.65625 2.76115 3.5915 2.60424 3.47801 2.49074C3.36451 2.37725 3.20684 2.3125 3.04688 2.3125Z" fill="black"/>
<path d="M4.875 2.3125C4.71504 2.3125 4.55736 2.37725 4.44387 2.49074C4.33037 2.60424 4.26562 2.76115 4.26562 2.92188C4.26562 3.08252 4.33037 3.23951 4.44387 3.35301C4.55736 3.46643 4.71504 3.53125 4.875 3.53125C5.03496 3.53125 5.19188 3.46643 5.30613 3.35301C5.41963 3.23951 5.48438 3.08252 5.48438 2.92188C5.48438 2.76115 5.41963 2.60424 5.30613 2.49074C5.19264 2.37725 5.03496 2.3125 4.875 2.3125Z" fill="black"/>
<path d="M6.70312 2.3125C6.54316 2.3125 6.38549 2.37725 6.27199 2.49074C6.1585 2.60424 6.09375 2.76115 6.09375 2.92188C6.09375 3.08252 6.1585 3.23951 6.27199 3.35301C6.38549 3.46643 6.54316 3.53125 6.70312 3.53125C6.86309 3.53125 7.02076 3.46643 7.13426 3.35301C7.24775 3.23951 7.3125 3.08184 7.3125 2.92188C7.3125 2.76184 7.24775 2.60424 7.13426 2.49074C7.02076 2.37725 6.86385 2.3125 6.70312 2.3125Z" fill="black"/>
<path d="M3.04688 7.79688H7.3125C7.64903 7.79688 7.92188 7.52403 7.92188 7.1875C7.92188 6.85097 7.64903 6.57812 7.3125 6.57812H3.04688C2.71035 6.57812 2.4375 6.85097 2.4375 7.1875C2.4375 7.52403 2.71035 7.79688 3.04688 7.79688Z" fill="black"/>
<path d="M7.3125 9.01562H3.04688C2.71035 9.01562 2.4375 9.28847 2.4375 9.625C2.4375 9.96153 2.71035 10.2344 3.04688 10.2344H7.3125C7.64903 10.2344 7.92188 9.96153 7.92188 9.625C7.92188 9.28847 7.64903 9.01562 7.3125 9.01562Z" fill="black"/>
<path d="M7.3125 11.4531H3.04688C2.71035 11.4531 2.4375 11.726 2.4375 12.0625C2.4375 12.399 2.71035 12.6719 3.04688 12.6719H7.3125C7.64903 12.6719 7.92188 12.399 7.92188 12.0625C7.92188 11.726 7.64903 11.4531 7.3125 11.4531Z" fill="black"/>
<path d="M5.48438 13.8906H3.04688C2.71035 13.8906 2.4375 14.1635 2.4375 14.5C2.4375 14.8365 2.71035 15.1094 3.04688 15.1094H5.48438C5.8209 15.1094 6.09375 14.8365 6.09375 14.5C6.09375 14.1635 5.8209 13.8906 5.48438 13.8906Z" fill="black"/>
<path d="M5.48438 16.3281H3.04688C2.71035 16.3281 2.4375 16.601 2.4375 16.9375C2.4375 17.274 2.71035 17.5469 3.04688 17.5469H5.48438C5.8209 17.5469 6.09375 17.274 6.09375 16.9375C6.09375 16.601 5.8209 16.3281 5.48438 16.3281Z" fill="black"/>
<path d="M3.65625 18.7656H3.04688C2.71035 18.7656 2.4375 19.0385 2.4375 19.375C2.4375 19.7115 2.71035 19.9844 3.04688 19.9844H3.65625C3.99278 19.9844 4.26562 19.7115 4.26562 19.375C4.26562 19.0385 3.99278 18.7656 3.65625 18.7656Z" fill="black"/>
<path d="M16.4531 13.2811C17.2669 13.2811 18.0321 13.598 18.6076 14.1736C18.8455 14.4114 19.2313 14.4114 19.4693 14.1736C19.7073 13.9355 19.7073 13.5498 19.4693 13.3117C17.8062 11.6486 15.0999 11.6488 13.4369 13.3117C12.6312 14.1174 12.1875 15.1886 12.1875 16.328C12.1875 17.4674 12.6312 18.5386 13.4369 19.3443C14.2684 20.1759 15.3607 20.5917 16.4531 20.5917C17.5455 20.5917 18.6378 20.1759 19.4694 19.3443C19.7074 19.1063 19.7074 18.7206 19.4694 18.4825C19.2314 18.2446 18.8456 18.2446 18.6076 18.4825C18.0321 19.058 17.2669 19.3749 16.4531 19.3749C15.6393 19.3749 14.8742 19.058 14.2987 18.4825C13.7232 17.907 13.4062 17.1419 13.4062 16.328C13.4062 15.5141 13.7232 14.749 14.2987 14.1736C14.8742 13.598 15.6393 13.2811 16.4531 13.2811Z" fill="black"/>
<path d="M24.986 17.9024C26.0619 17.4317 26.8155 16.3569 26.8155 15.1094C26.8155 13.4293 25.4487 12.0625 23.7687 12.0625H21.3281C20.9916 12.0625 20.7188 12.3353 20.7188 12.6719C20.7188 12.6923 20.7197 12.7125 20.7217 12.7324V19.9844C20.7217 20.3209 20.9946 20.5938 21.3311 20.5938C21.6676 20.5938 21.9405 20.3209 21.9405 19.9844V13.2812H23.7686C24.7766 13.2812 25.5967 14.1014 25.5967 15.1094C25.5967 16.1174 24.7766 16.9375 23.7686 16.9375C23.5221 16.9375 23.2999 17.086 23.2056 17.3136C23.1113 17.5413 23.1634 17.8035 23.3377 17.9778L25.7752 20.4153C25.8942 20.5343 26.0501 20.5938 26.2061 20.5938C26.3621 20.5938 26.518 20.5343 26.637 20.4153C26.875 20.1772 26.875 19.7915 26.637 19.5535L24.986 17.9024Z" fill="black"/>
<path d="M34.8912 12.0821C34.6223 12.0128 34.3404 12.1333 34.2056 12.376L31.6914 16.9016L29.1772 12.376C29.0424 12.1332 28.7605 12.0123 28.4917 12.0821C28.2228 12.1517 28.0352 12.3943 28.0352 12.672V19.9845C28.0352 20.321 28.308 20.5939 28.6445 20.5939C28.9811 20.5939 29.2539 20.321 29.2539 19.9845V15.0236L31.1587 18.4523C31.2662 18.6458 31.4701 18.7657 31.6914 18.7657C31.9127 18.7657 32.1167 18.6458 32.2241 18.4523L34.1289 15.0236V19.9845C34.1289 20.321 34.4018 20.5939 34.7383 20.5939C35.0748 20.5939 35.3477 20.321 35.3477 19.9845V12.672C35.3477 12.3942 35.16 12.1517 34.8912 12.0821Z" fill="black"/>
</svg>
