<svg width="39" height="39" viewBox="0 0 39 39" fill="none" xmlns="http://www.w3.org/2000/svg">
<path d="M16.7628 32.1649L21.0426 22.7095H22.9335V32.1649H25.6204V6.83496H20.8623C17.8336 6.83496 14.2251 10.02 14.2251 15.195C14.2251 20.3709 18.7533 22.4607 18.7533 22.4607L13.3789 32.1649H16.7628ZM18.4223 19.2307C17.7611 18.3999 17.1853 17.0175 17.1853 14.7229C17.1853 9.69651 20.0754 9.04724 20.474 8.98191C20.5026 8.9772 20.5306 8.97563 20.5592 8.97563H22.8585V20.4702H21.0696C20.0469 20.4702 19.0593 20.0308 18.4223 19.2307Z" fill="black"/>
<path d="M0 0V39H39V0H0ZM36.5876 36.5876H2.41237V2.41237H36.5876V36.5876Z" fill="black"/>
</svg>
