<svg width="39" height="39" viewBox="0 0 39 39" fill="none" xmlns="http://www.w3.org/2000/svg">
<g clip-path="url(#clip0)">
<path d="M27.7286 28.682C27.7286 27.4733 26.922 26.4498 25.8187 26.1207C26.0207 25.7446 26.1356 25.3152 26.1356 24.8594C26.1356 23.3856 24.9365 22.1865 23.4627 22.1865H18.699L19.1355 20.8901C19.5881 19.5461 19.4801 18.1116 18.8311 16.8509C18.1819 15.5899 17.0774 14.6684 15.7206 14.2557C15.3323 14.1379 14.9205 14.3444 14.7824 14.7255L13.1572 19.2176C12.7103 20.4527 11.8287 21.479 10.6751 22.1074L9.63247 22.6751C9.52238 22.3894 9.24625 22.1865 8.92193 22.1865H0.761719C0.340988 22.1865 0 22.5275 0 22.9482V38.238C0 38.6587 0.340988 38.9997 0.761719 38.9997H8.92193C9.34266 38.9997 9.68365 38.6587 9.68365 38.238V38.2329L10.0136 38.3623C11.0922 38.7854 12.2268 39 13.3854 39H23.0384C24.5125 39 25.7116 37.8009 25.7116 36.3271C25.7116 35.8594 25.5905 35.4196 25.3783 35.0367C26.4346 34.6793 27.1972 33.6798 27.1972 32.5045C27.1972 31.8791 26.9806 31.3036 26.6197 30.8478C27.2907 30.3619 27.7286 29.5725 27.7286 28.682ZM1.52344 37.4765V23.71H4.07698V29.4362C4.07698 29.857 4.41797 30.198 4.8387 30.198C5.25943 30.198 5.60042 29.857 5.60042 29.4362V23.71H8.16021V37.4765H1.52344ZM24.5241 33.654H20.4899C20.0695 33.654 19.7285 33.9952 19.7285 34.4157C19.7285 34.8364 20.0695 35.1774 20.4899 35.1774H23.0384C23.6722 35.1774 24.1878 35.6933 24.1878 36.3271C24.1878 36.9609 23.6722 37.4765 23.0384 37.4765H13.3854C12.4181 37.4765 11.4704 37.2974 10.5697 36.9442L9.68365 36.5967V24.3818L11.4038 23.4451C12.8847 22.6388 14.0162 21.3213 14.5899 19.7359L15.9455 15.9895C16.5983 16.3371 17.1294 16.8741 17.4764 17.5481C17.9355 18.4395 18.012 19.4539 17.6918 20.4039L16.9167 22.7051C16.8384 22.9375 16.8768 23.1934 17.02 23.3925C17.1631 23.5918 17.3934 23.71 17.6385 23.71H23.4627C24.0965 23.71 24.6121 24.2256 24.6121 24.8594C24.6121 25.4932 24.0965 26.0091 23.4627 26.0091H20.4899C20.0695 26.0091 19.7282 26.3501 19.7282 26.7708C19.7282 27.1913 20.0695 27.5325 20.4899 27.5325H21.6126H21.6156H25.0558C25.6896 27.5325 26.2052 28.0482 26.2052 28.682C26.2052 29.316 25.6896 29.8317 25.0558 29.8317H20.4899C20.0695 29.8317 19.7285 30.1727 19.7285 30.5934C19.7285 31.0138 20.0695 31.3551 20.4899 31.3551H24.5241C25.1578 31.3551 25.6738 31.8708 25.6738 32.5045C25.6738 33.1383 25.1578 33.654 24.5241 33.654Z" fill="black"/>
<path d="M4.83984 31.7124C4.41911 31.7124 4.07812 32.0537 4.07812 32.4741V32.483C4.07812 32.9035 4.41911 33.2448 4.83984 33.2448C5.26057 33.2448 5.60156 32.9035 5.60156 32.483V32.4741C5.60156 32.0537 5.26057 31.7124 4.83984 31.7124Z" fill="black"/>
<path d="M31.2883 6.52246H30.9889C29.4655 6.52246 28.2259 7.76204 28.2259 9.28577V10.2034H28.1289C27.7082 10.2034 27.3672 10.5444 27.3672 10.9651C27.3672 11.3856 27.7082 11.7268 28.1289 11.7268H28.2259V14.6535C28.2259 15.0742 28.5669 15.4152 28.9876 15.4152C29.4084 15.4152 29.7493 15.0742 29.7493 14.6535V11.7268H31.0121C31.4326 11.7268 31.7738 11.3856 31.7738 10.9651C31.7738 10.5444 31.4326 10.2034 31.0121 10.2034H29.7493V9.28577C29.7493 8.60201 30.3055 8.0459 30.9889 8.0459H31.2883C31.7087 8.0459 32.05 7.70491 32.05 7.28418C32.05 6.86375 31.7087 6.52246 31.2883 6.52246Z" fill="black"/>
<path d="M29.707 1.67578C24.5827 1.67578 20.4141 5.8447 20.4141 10.9688C20.4141 16.0928 24.5827 20.2617 29.707 20.2617C34.8311 20.2617 38.9997 16.0928 38.9997 10.9688C38.9997 5.8447 34.8311 1.67578 29.707 1.67578ZM29.707 18.7383C25.4227 18.7383 21.9375 15.2528 21.9375 10.9688C21.9375 6.68468 25.4227 3.19922 29.707 3.19922C33.9911 3.19922 37.4766 6.68468 37.4766 10.9688C37.4766 15.2528 33.9911 18.7383 29.707 18.7383Z" fill="black"/>
</g>
<defs>
<clipPath id="clip0">
<rect width="39" height="39" fill="white"/>
</clipPath>
</defs>
</svg>
