<svg width="37" height="36" viewBox="0 0 37 36" fill="none" xmlns="http://www.w3.org/2000/svg">
<path d="M20.5417 36H12.375V12H20.5417V16C22.2825 13.8305 24.9223 12.5371 27.7385 12.474C32.8031 12.5015 36.8897 16.5388 36.875 21.5V36H28.7083V22.5C28.3817 20.2653 26.4253 18.6072 24.1207 18.612C23.1127 18.6432 22.1612 19.0756 21.4858 19.8092C20.8104 20.5429 20.4695 21.5146 20.5417 22.5V36ZM8.29167 36H0.125V12H8.29167V36ZM4.20833 8C1.95317 8 0.125 6.20914 0.125 4C0.125 1.79086 1.95317 0 4.20833 0C6.4635 0 8.29167 1.79086 8.29167 4C8.29167 5.06087 7.86146 6.07828 7.09569 6.82843C6.32991 7.57857 5.2913 8 4.20833 8Z" fill="white"/>
</svg>
