<svg width="37" height="37" viewBox="0 0 37 37" fill="none" xmlns="http://www.w3.org/2000/svg">
<path d="M18.5039 36.082C13.4814 36.082 12.8893 36.056 10.9293 35.972C9.40087 35.9228 7.89221 35.6184 6.46828 35.072C4.00463 34.1328 2.05653 32.2237 1.0987 29.81C0.562365 28.4101 0.273084 26.931 0.24324 25.436C0.128906 23.52 0.128906 22.892 0.128906 18.01C0.128906 13.076 0.155448 12.5 0.24324 10.59C0.273737 9.09705 0.563008 7.62003 1.0987 6.22201C2.05549 3.80507 4.00675 1.89435 6.47441 0.95801C7.9008 0.430414 9.40899 0.146298 10.9334 0.11801C12.8832 0.0100098 13.5243 0.0100098 18.5039 0.0100098C23.5672 0.0100098 24.1491 0.0360098 26.0785 0.11801C27.6069 0.146543 29.119 0.430629 30.5497 0.95801C33.0167 1.89542 34.9676 3.80576 35.9254 6.22201C36.4708 7.6404 36.7616 9.14052 36.785 10.656C36.8993 12.572 36.8993 13.198 36.8993 18.078C36.8993 22.958 36.8707 23.598 36.785 25.492C36.7546 26.9884 36.4646 28.4689 35.9275 29.87C34.9672 32.2854 33.0162 34.1952 30.5497 35.134C29.1211 35.6584 27.612 35.9417 26.0867 35.972C24.1369 36.082 23.4978 36.082 18.5039 36.082ZM18.4345 3.17601C13.4406 3.17601 12.922 3.20001 10.9722 3.28601C9.80842 3.30111 8.65588 3.51149 7.56466 3.90801C5.95328 4.51203 4.6782 5.75599 4.05503 7.33201C3.64713 8.41261 3.43234 9.55397 3.42007 10.706C3.31186 12.644 3.31186 13.152 3.31186 18.01C3.31186 22.81 3.33024 23.392 3.42007 25.318C3.43835 26.4584 3.65302 27.5876 4.05503 28.658C4.67912 30.233 5.95397 31.476 7.56466 32.08C8.65514 32.4792 9.80814 32.6896 10.9722 32.702C12.9485 32.814 13.4692 32.814 18.4345 32.814C23.4427 32.814 23.9613 32.79 25.8947 32.702C27.0593 32.6881 28.2127 32.4777 29.3043 32.08C30.9059 31.4708 32.1727 30.2306 32.7956 28.662C33.2027 27.5805 33.4174 26.4386 33.4305 25.286H33.453C33.5408 23.374 33.5408 22.864 33.5408 17.978C33.5408 13.092 33.5183 12.578 33.4305 10.668C33.4122 9.52891 33.1975 8.40103 32.7956 7.33201C32.1741 5.76116 30.9072 4.5186 29.3043 3.90801C28.2129 3.50949 27.0594 3.29905 25.8947 3.28601C23.9204 3.17601 23.4039 3.17601 18.4345 3.17601ZM18.5039 27.248C14.686 27.2504 11.2426 24.9995 9.77958 21.5449C8.31661 18.0904 9.12226 14.1127 11.8208 11.4669C14.5193 8.82119 18.5792 8.02855 22.107 9.45867C25.6347 10.8888 27.9356 14.26 27.9364 18C27.9308 23.1021 23.7123 27.2381 18.5039 27.248ZM18.5039 11.996C15.1212 11.996 12.3789 14.6823 12.3789 17.996C12.3789 21.3097 15.1212 23.996 18.5039 23.996C21.8866 23.996 24.6289 21.3097 24.6289 17.996C24.621 14.6855 21.8834 12.0037 18.5039 11.996ZM28.3039 10.57C27.09 10.5656 26.1089 9.59919 26.1112 8.41003C26.1134 7.22087 27.0981 6.25803 28.3121 6.25803C29.526 6.25803 30.5107 7.22085 30.513 8.41001C30.5135 8.98374 30.2808 9.53406 29.8663 9.93937C29.4518 10.3447 28.8896 10.5716 28.3039 10.57Z" fill="white"/>
</svg>
