<svg width="41" height="40" viewBox="0 0 41 40" fill="none" xmlns="http://www.w3.org/2000/svg">
<circle cx="20.9961" cy="20" r="20" fill="white"/>
<path d="M21.0039 29.0409C18.5439 29.0409 18.2539 29.0279 17.2939 28.9859C16.5453 28.9613 15.8063 28.8091 15.1089 28.5359C13.9022 28.0663 12.948 27.1117 12.4789 25.9049C12.2162 25.2049 12.0745 24.4654 12.0599 23.7179C12.0039 22.7599 12.0039 22.4459 12.0039 20.0049C12.0039 17.5379 12.0169 17.2499 12.0599 16.2949C12.0748 15.5484 12.2165 14.8099 12.4789 14.1109C12.9475 12.9024 13.9033 11.9471 15.1119 11.4789C15.8105 11.2151 16.5493 11.073 17.2959 11.0589C18.2509 11.0049 18.5649 11.0049 21.0039 11.0049C23.4839 11.0049 23.7689 11.0179 24.7139 11.0589C25.4625 11.0731 26.2032 11.2152 26.9039 11.4789C28.1122 11.9476 29.0677 12.9028 29.5369 14.1109C29.804 14.8201 29.9465 15.5701 29.9579 16.3279C30.0139 17.2859 30.0139 17.5989 30.0139 20.0389C30.0139 22.4789 29.9999 22.7989 29.9579 23.7459C29.943 24.4941 29.801 25.2343 29.5379 25.9349C29.0676 27.1426 28.112 28.0975 26.9039 28.5669C26.2042 28.8291 25.465 28.9707 24.7179 28.9859C23.7629 29.0409 23.4499 29.0409 21.0039 29.0409ZM20.9699 12.5879C18.5239 12.5879 18.2699 12.5999 17.3149 12.6429C16.7449 12.6504 16.1804 12.7556 15.6459 12.9539C14.8567 13.2559 14.2321 13.8779 13.9269 14.6659C13.7271 15.2062 13.6219 15.7769 13.6159 16.3529C13.5629 17.3219 13.5629 17.5759 13.5629 20.0049C13.5629 22.4049 13.5719 22.6959 13.6159 23.6589C13.6249 24.2291 13.73 24.7937 13.9269 25.3289C14.2326 26.1164 14.857 26.7379 15.6459 27.0399C16.18 27.2395 16.7448 27.3447 17.3149 27.3509C18.2829 27.4069 18.5379 27.4069 20.9699 27.4069C23.4229 27.4069 23.6769 27.3949 24.6239 27.3509C25.1943 27.3439 25.7592 27.2387 26.2939 27.0399C27.0784 26.7353 27.6988 26.1152 28.0039 25.3309C28.2033 24.7901 28.3085 24.2192 28.3149 23.6429H28.3259C28.3689 22.6869 28.3689 22.4319 28.3689 19.9889C28.3689 17.5459 28.3579 17.2889 28.3149 16.3339C28.3059 15.7643 28.2008 15.2004 28.0039 14.6659C27.6995 13.8805 27.079 13.2592 26.2939 12.9539C25.7594 12.7546 25.1943 12.6494 24.6239 12.6429C23.6569 12.5879 23.4039 12.5879 20.9699 12.5879ZM21.0039 24.6239C19.1339 24.6251 17.4473 23.4996 16.7308 21.7723C16.0142 20.0451 16.4088 18.0562 17.7305 16.7333C19.0523 15.4105 21.0408 15.0142 22.7687 15.7292C24.4966 16.4443 25.6235 18.1299 25.6239 19.9999C25.6212 22.5509 23.555 24.6189 21.0039 24.6239ZM21.0039 16.9979C19.3471 16.9979 18.0039 18.341 18.0039 19.9979C18.0039 21.6547 19.3471 22.9979 21.0039 22.9979C22.6608 22.9979 24.0039 21.6547 24.0039 19.9979C24.0001 18.3426 22.6592 17.0017 21.0039 16.9979ZM25.8039 16.2849C25.2093 16.2827 24.7288 15.7995 24.7299 15.2049C24.731 14.6103 25.2133 14.1289 25.8079 14.1289C26.4025 14.1289 26.8848 14.6103 26.8859 15.2049C26.8862 15.4917 26.7722 15.7669 26.5692 15.9696C26.3661 16.1722 26.0908 16.2857 25.8039 16.2849Z" fill="#202020"/>
</svg>
