<svg width="41" height="40" viewBox="0 0 41 40" fill="none" xmlns="http://www.w3.org/2000/svg">
<circle cx="20.9961" cy="20" r="20" fill="white"/>
<path d="M21.005 28.0125H20.985C20.923 28.0125 14.72 28.0005 13.155 27.5755C12.2944 27.3437 11.6224 26.6712 11.391 25.8105C11.1096 24.2229 10.9737 22.6128 10.985 21.0005C10.9778 19.3855 11.1173 17.7732 11.402 16.1835C11.6397 15.322 12.3089 14.6464 13.168 14.4005C14.69 14.0005 20.722 14.0005 20.978 14.0005H20.999C21.062 14.0005 27.281 14.0125 28.83 14.4375C29.6888 14.6705 30.3595 15.3416 30.592 16.2005C30.8824 17.794 31.0187 19.4118 30.999 21.0315C31.006 22.6445 30.8661 24.2548 30.581 25.8425C30.3467 26.7021 29.6742 27.3731 28.814 27.6055C27.294 28.0085 21.261 28.0125 21.005 28.0125ZM19.005 18.0055L19 24.0055L24.212 21.0055L19.005 18.0055Z" fill="#202020"/>
</svg>
