<svg width="41" height="28" viewBox="0 0 41 28" fill="none" xmlns="http://www.w3.org/2000/svg">
<path d="M20.5254 28H20.4844C20.3574 28 7.65177 27.976 4.44617 27.1267C2.68344 26.6635 1.30682 25.3197 0.83295 23.5998C0.256512 20.4272 -0.0218477 17.2099 0.00133716 13.988C-0.0135558 10.7608 0.272336 7.53896 0.855482 4.36226C1.34238 2.64076 2.71295 1.29079 4.47279 0.799315C7.59032 0 19.9457 0 20.4701 0H20.5131C20.6421 0 33.3806 0.0239794 36.5534 0.873251C38.3124 1.33887 39.6862 2.6799 40.1625 4.39623C40.7573 7.58059 41.0365 10.8134 40.9962 14.05C41.0105 17.2733 40.724 20.4911 40.14 23.6637C39.66 25.3815 38.2825 26.7223 36.5206 27.1867C33.4072 27.992 21.0498 28 20.5254 28ZM16.4288 8.00314L16.4185 19.9929L27.0943 13.998L16.4288 8.00314Z" fill="white"/>
</svg>
